<svg width="186" height="193" viewBox="0 0 186 193" fill="none" xmlns="http://www.w3.org/2000/svg">
<rect x="95.1724" y="1.50154" width="126.169" height="133.283" rx="7.5" transform="rotate(45 95.1724 1.50154)" fill="#FEF0D3" stroke="#D18D05"/>
<g clip-path="url(#clip0_201_407)">
<path d="M60.3311 63.3481H124.97V128.966H60.3311V63.3481Z" fill="#CBA07A"/>
<path d="M83.5596 98.8931L90.2915 92.0591L109.817 111.88L103.085 118.714L83.5596 98.8931Z" fill="#D9B18C"/>
<path d="M75.4824 90.6914L95.0076 70.8704L101.74 77.7044L82.2144 97.5254L75.4824 90.6914Z" fill="#D9B18C"/>
<path d="M124.976 110.855V112.907L119.25 118.714L99.7246 98.8931L106.455 92.0605L124.976 110.855Z" fill="#D9B18C"/>
<path d="M91.6396 90.6899L111.165 70.869L117.897 77.7029L98.3716 97.5239L91.6396 90.6899Z" fill="#D9B18C"/>
<path d="M124.976 94.4474V108.12L115.881 98.8931L122.618 92.0605L124.976 94.4474Z" fill="#D9B18C"/>
<path d="M124.977 68.4778V70.5227L119.25 76.3364L106.456 63.3481H119.924L124.977 68.4778Z" fill="#D9B18C"/>
<path d="M109.824 69.4968L103.087 76.3364L90.2993 63.3481H103.761L109.824 69.4968Z" fill="#D9B18C"/>
<path d="M93.6607 69.4968L86.9301 76.3364L74.1357 63.3481H87.6039L93.6607 69.4968Z" fill="#D9B18C"/>
<path d="M77.5048 69.4968L70.7673 76.3364L60.3311 65.742V63.3481H71.4411L77.5048 69.4968Z" fill="#D9B18C"/>
<path d="M124.976 73.2588V86.931L114.54 97.5254L107.803 90.6927L124.976 73.2588Z" fill="#D9B18C"/>
<path d="M67.3955 98.894L74.1275 92.0601L93.6526 111.881L86.9206 118.715L67.3955 98.894Z" fill="#D9B18C"/>
<path d="M77.5048 111.881L70.7673 118.714L60.3311 108.119V94.4473L77.5048 111.881Z" fill="#D9B18C"/>
<path d="M85.5829 77.7043L66.0579 97.5252L60.3311 91.7185V89.6666L78.8523 70.8647L85.5829 77.7043Z" fill="#D9B18C"/>
<path d="M69.4198 77.7043L60.3311 86.9308V73.2586L62.6892 70.8647L69.4198 77.7043Z" fill="#D9B18C"/>
<path d="M101.746 120.082L92.9871 128.967H79.5259L95.0084 113.25L101.746 120.082Z" fill="#D9B18C"/>
<path d="M117.902 120.082L109.15 128.967H95.6821L111.172 113.25L117.902 120.082Z" fill="#D9B18C"/>
<path d="M124.976 115.643V128.966H111.845L124.976 115.643Z" fill="#D9B18C"/>
<path d="M85.5828 120.082L76.8309 128.967H63.3628L78.8522 113.25L85.5828 120.082Z" fill="#D9B18C"/>
<path d="M69.4198 120.082L60.6679 128.967H60.3311V115.643L62.6892 113.25L69.4198 120.082Z" fill="#D9B18C"/>
<path d="M86.9229 95.4731L88.9449 93.4205L108.47 113.241L106.448 115.294L86.9229 95.4731Z" fill="#E5C2A1"/>
<path d="M76.8184 92.0537L96.3435 72.2327L98.3655 74.2854L78.8404 94.1064L76.8184 92.0537Z" fill="#E5C2A1"/>
<path d="M103.08 95.479L105.102 93.4263L124.627 113.247L122.605 115.3L103.08 95.479Z" fill="#E5C2A1"/>
<path d="M92.9824 92.0596L112.508 72.2386L114.53 74.2913L95.0044 94.1122L92.9824 92.0596Z" fill="#E5C2A1"/>
<path d="M124.976 97.1832V101.287L119.25 95.4733L121.271 93.4214L124.976 97.1832Z" fill="#E5C2A1"/>
<path d="M124.64 70.8647L122.618 72.9166L113.193 63.3481H117.228L124.64 70.8647Z" fill="#E5C2A1"/>
<path d="M108.477 70.8647L106.455 72.9166L97.0298 63.3481H101.072L108.477 70.8647Z" fill="#E5C2A1"/>
<path d="M92.3136 70.8647L90.2992 72.9166L80.8667 63.3481H84.9092L92.3136 70.8647Z" fill="#E5C2A1"/>
<path d="M76.1573 70.8647L74.1361 72.9166L64.7104 63.3481H68.7461L76.1573 70.8647Z" fill="#E5C2A1"/>
<path d="M124.977 75.9946V80.0914L111.172 94.1056L109.15 92.0607L124.977 75.9946Z" fill="#E5C2A1"/>
<path d="M70.7637 95.4692L72.7857 93.4166L92.3108 113.238L90.2888 115.29L70.7637 95.4692Z" fill="#E5C2A1"/>
<path d="M76.1573 113.249L74.1361 115.294L60.3311 101.287V97.1831L76.1573 113.249Z" fill="#E5C2A1"/>
<path d="M60.666 92.0498L80.1911 72.2288L82.2132 74.2815L62.688 94.1025L60.666 92.0498Z" fill="#E5C2A1"/>
<path d="M66.0579 74.2848L60.3311 80.0915V75.9947L64.0367 72.2329L66.0579 74.2848Z" fill="#E5C2A1"/>
<path d="M98.377 116.662L86.2564 128.966H82.2139L96.3557 114.617L98.377 116.662Z" fill="#E5C2A1"/>
<path d="M114.541 116.662L102.42 128.966H98.3774L112.519 114.617L114.541 116.662Z" fill="#E5C2A1"/>
<path d="M124.977 118.372V122.476L118.576 128.966H114.541L124.977 118.372Z" fill="#E5C2A1"/>
<path d="M82.2139 116.662L70.0932 128.966H66.0576L80.1995 114.617L82.2139 116.662Z" fill="#E5C2A1"/>
<path d="M66.0579 116.662L60.3311 122.476V118.372L64.0367 114.617L66.0579 116.662Z" fill="#E5C2A1"/>
<path d="M79.1889 118.03C79.561 118.03 79.8626 117.724 79.8626 117.346C79.8626 116.968 79.561 116.662 79.1889 116.662C78.8168 116.662 78.5151 116.968 78.5151 117.346C78.5151 117.724 78.8168 118.03 79.1889 118.03Z" fill="#39426A"/>
<path d="M82.8876 121.792C83.2597 121.792 83.5614 121.486 83.5614 121.108C83.5614 120.73 83.2597 120.424 82.8876 120.424C82.5155 120.424 82.2139 120.73 82.2139 121.108C82.2139 121.486 82.5155 121.792 82.8876 121.792Z" fill="#39426A"/>
<path d="M63.0258 118.03C63.3979 118.03 63.6996 117.724 63.6996 117.346C63.6996 116.968 63.3979 116.662 63.0258 116.662C62.6537 116.662 62.3521 116.968 62.3521 117.346C62.3521 117.724 62.6537 118.03 63.0258 118.03Z" fill="#39426A"/>
<path d="M66.7314 121.792C67.1035 121.792 67.4051 121.486 67.4051 121.108C67.4051 120.73 67.1035 120.424 66.7314 120.424C66.3593 120.424 66.0576 120.73 66.0576 121.108C66.0576 121.486 66.3593 121.792 66.7314 121.792Z" fill="#39426A"/>
<path d="M95.3451 118.03C95.7172 118.03 96.0189 117.724 96.0189 117.346C96.0189 116.968 95.7172 116.662 95.3451 116.662C94.973 116.662 94.6714 116.968 94.6714 117.346C94.6714 117.724 94.973 118.03 95.3451 118.03Z" fill="#39426A"/>
<path d="M99.3876 122.134C99.7597 122.134 100.061 121.828 100.061 121.45C100.061 121.072 99.7597 120.766 99.3876 120.766C99.0155 120.766 98.7139 121.072 98.7139 121.45C98.7139 121.828 99.0155 122.134 99.3876 122.134Z" fill="#39426A"/>
<path d="M111.509 118.03C111.881 118.03 112.182 117.724 112.182 117.346C112.182 116.968 111.881 116.662 111.509 116.662C111.137 116.662 110.835 116.968 110.835 117.346C110.835 117.724 111.137 118.03 111.509 118.03Z" fill="#39426A"/>
<path d="M115.544 122.134C115.916 122.134 116.218 121.828 116.218 121.45C116.218 121.072 115.916 120.766 115.544 120.766C115.172 120.766 114.87 121.072 114.87 121.45C114.87 121.828 115.172 122.134 115.544 122.134Z" fill="#39426A"/>
<path d="M106.119 96.8415C106.491 96.8415 106.792 96.5353 106.792 96.1576C106.792 95.7799 106.491 95.4736 106.119 95.4736C105.746 95.4736 105.445 95.7799 105.445 96.1576C105.445 96.5353 105.746 96.8415 106.119 96.8415Z" fill="#39426A"/>
<path d="M102.42 100.603C102.792 100.603 103.094 100.297 103.094 99.9193C103.094 99.5416 102.792 99.2354 102.42 99.2354C102.048 99.2354 101.746 99.5416 101.746 99.9193C101.746 100.297 102.048 100.603 102.42 100.603Z" fill="#39426A"/>
<path d="M89.9623 96.8415C90.3344 96.8415 90.6361 96.5353 90.6361 96.1576C90.6361 95.7799 90.3344 95.4736 89.9623 95.4736C89.5902 95.4736 89.2886 95.7799 89.2886 96.1576C89.2886 96.5353 89.5902 96.8415 89.9623 96.8415Z" fill="#39426A"/>
<path d="M85.9198 100.945C86.2919 100.945 86.5936 100.639 86.5936 100.261C86.5936 99.8834 86.2919 99.5771 85.9198 99.5771C85.5477 99.5771 85.2461 99.8834 85.2461 100.261C85.2461 100.639 85.5477 100.945 85.9198 100.945Z" fill="#39426A"/>
<path d="M107.466 113.933C107.838 113.933 108.139 113.627 108.139 113.249C108.139 112.872 107.838 112.565 107.466 112.565C107.094 112.565 106.792 112.872 106.792 113.249C106.792 113.627 107.094 113.933 107.466 113.933Z" fill="#39426A"/>
<path d="M102.757 118.03C103.129 118.03 103.431 117.724 103.431 117.346C103.431 116.968 103.129 116.662 102.757 116.662C102.385 116.662 102.083 116.968 102.083 117.346C102.083 117.724 102.385 118.03 102.757 118.03Z" fill="#39426A"/>
<path d="M73.7992 96.8415C74.1713 96.8415 74.473 96.5353 74.473 96.1576C74.473 95.7799 74.1713 95.4736 73.7992 95.4736C73.4271 95.4736 73.1255 95.7799 73.1255 96.1576C73.1255 96.5353 73.4271 96.8415 73.7992 96.8415Z" fill="#39426A"/>
<path d="M69.7568 100.945C70.1289 100.945 70.4305 100.639 70.4305 100.261C70.4305 99.8834 70.1289 99.5771 69.7568 99.5771C69.3847 99.5771 69.083 99.8834 69.083 100.261C69.083 100.639 69.3847 100.945 69.7568 100.945Z" fill="#39426A"/>
<path d="M91.3095 113.933C91.6816 113.933 91.9832 113.627 91.9832 113.249C91.9832 112.872 91.6816 112.565 91.3095 112.565C90.9374 112.565 90.6357 112.872 90.6357 113.249C90.6357 113.627 90.9374 113.933 91.3095 113.933Z" fill="#39426A"/>
<path d="M86.5937 118.03C86.9658 118.03 87.2674 117.724 87.2674 117.346C87.2674 116.968 86.9658 116.662 86.5937 116.662C86.2216 116.662 85.9199 116.968 85.9199 117.346C85.9199 117.724 86.2216 118.03 86.5937 118.03Z" fill="#39426A"/>
<path d="M75.1464 113.933C75.5185 113.933 75.8202 113.627 75.8202 113.249C75.8202 112.872 75.5185 112.565 75.1464 112.565C74.7743 112.565 74.4727 112.872 74.4727 113.249C74.4727 113.627 74.7743 113.933 75.1464 113.933Z" fill="#39426A"/>
<path d="M70.4306 118.03C70.8027 118.03 71.1043 117.724 71.1043 117.346C71.1043 116.968 70.8027 116.662 70.4306 116.662C70.0585 116.662 69.7568 116.968 69.7568 117.346C69.7568 117.724 70.0585 118.03 70.4306 118.03Z" fill="#39426A"/>
<path d="M123.629 113.933C124.001 113.933 124.303 113.627 124.303 113.249C124.303 112.872 124.001 112.565 123.629 112.565C123.257 112.565 122.956 112.872 122.956 113.249C122.956 113.627 123.257 113.933 123.629 113.933Z" fill="#39426A"/>
<path d="M119.587 118.03C119.959 118.03 120.261 117.724 120.261 117.346C120.261 116.968 119.959 116.662 119.587 116.662C119.215 116.662 118.913 116.968 118.913 117.346C118.913 117.724 119.215 118.03 119.587 118.03Z" fill="#39426A"/>
<path d="M122.282 96.8415C122.654 96.8415 122.955 96.5353 122.955 96.1576C122.955 95.7799 122.654 95.4736 122.282 95.4736C121.91 95.4736 121.608 95.7799 121.608 96.1576C121.608 96.5353 121.91 96.8415 122.282 96.8415Z" fill="#39426A"/>
<path d="M118.576 100.603C118.948 100.603 119.25 100.297 119.25 99.9193C119.25 99.5416 118.948 99.2354 118.576 99.2354C118.204 99.2354 117.902 99.5416 117.902 99.9193C117.902 100.297 118.204 100.603 118.576 100.603Z" fill="#39426A"/>
<path d="M79.1889 75.6526C79.561 75.6526 79.8626 75.3464 79.8626 74.9686C79.8626 74.5909 79.561 74.2847 79.1889 74.2847C78.8168 74.2847 78.5151 74.5909 78.5151 74.9686C78.5151 75.3464 78.8168 75.6526 79.1889 75.6526Z" fill="#39426A"/>
<path d="M82.8876 79.4143C83.2597 79.4143 83.5614 79.1081 83.5614 78.7303C83.5614 78.3526 83.2597 78.0464 82.8876 78.0464C82.5155 78.0464 82.2139 78.3526 82.2139 78.7303C82.2139 79.1081 82.5155 79.4143 82.8876 79.4143Z" fill="#39426A"/>
<path d="M63.0258 75.6526C63.3979 75.6526 63.6996 75.3464 63.6996 74.9686C63.6996 74.5909 63.3979 74.2847 63.0258 74.2847C62.6537 74.2847 62.3521 74.5909 62.3521 74.9686C62.3521 75.3464 62.6537 75.6526 63.0258 75.6526Z" fill="#39426A"/>
<path d="M66.7314 79.4143C67.1035 79.4143 67.4051 79.1081 67.4051 78.7303C67.4051 78.3526 67.1035 78.0464 66.7314 78.0464C66.3593 78.0464 66.0576 78.3526 66.0576 78.7303C66.0576 79.1081 66.3593 79.4143 66.7314 79.4143Z" fill="#39426A"/>
<path d="M95.3451 75.6526C95.7172 75.6526 96.0189 75.3464 96.0189 74.9686C96.0189 74.5909 95.7172 74.2847 95.3451 74.2847C94.973 74.2847 94.6714 74.5909 94.6714 74.9686C94.6714 75.3464 94.973 75.6526 95.3451 75.6526Z" fill="#39426A"/>
<path d="M99.3876 79.7566C99.7597 79.7566 100.061 79.4504 100.061 79.0726C100.061 78.6949 99.7597 78.3887 99.3876 78.3887C99.0155 78.3887 98.7139 78.6949 98.7139 79.0726C98.7139 79.4504 99.0155 79.7566 99.3876 79.7566Z" fill="#39426A"/>
<path d="M77.8417 92.7375C78.2138 92.7375 78.5155 92.4313 78.5155 92.0536C78.5155 91.6758 78.2138 91.3696 77.8417 91.3696C77.4696 91.3696 77.168 91.6758 77.168 92.0536C77.168 92.4313 77.4696 92.7375 77.8417 92.7375Z" fill="#39426A"/>
<path d="M82.5512 96.8415C82.9233 96.8415 83.2249 96.5353 83.2249 96.1576C83.2249 95.7799 82.9233 95.4736 82.5512 95.4736C82.1791 95.4736 81.8774 95.7799 81.8774 96.1576C81.8774 96.5353 82.1791 96.8415 82.5512 96.8415Z" fill="#39426A"/>
<path d="M111.509 75.6526C111.881 75.6526 112.182 75.3464 112.182 74.9686C112.182 74.5909 111.881 74.2847 111.509 74.2847C111.137 74.2847 110.835 74.5909 110.835 74.9686C110.835 75.3464 111.137 75.6526 111.509 75.6526Z" fill="#39426A"/>
<path d="M115.544 79.7566C115.916 79.7566 116.218 79.4504 116.218 79.0726C116.218 78.6949 115.916 78.3887 115.544 78.3887C115.172 78.3887 114.87 78.6949 114.87 79.0726C114.87 79.4504 115.172 79.7566 115.544 79.7566Z" fill="#39426A"/>
<path d="M93.998 92.7375C94.3701 92.7375 94.6717 92.4313 94.6717 92.0536C94.6717 91.6758 94.3701 91.3696 93.998 91.3696C93.6259 91.3696 93.3242 91.6758 93.3242 92.0536C93.3242 92.4313 93.6259 92.7375 93.998 92.7375Z" fill="#39426A"/>
<path d="M98.7143 96.8415C99.0864 96.8415 99.388 96.5353 99.388 96.1576C99.388 95.7799 99.0864 95.4736 98.7143 95.4736C98.3422 95.4736 98.0405 95.7799 98.0405 96.1576C98.0405 96.5353 98.3422 96.8415 98.7143 96.8415Z" fill="#39426A"/>
<path d="M110.161 92.7375C110.533 92.7375 110.835 92.4313 110.835 92.0536C110.835 91.6758 110.533 91.3696 110.161 91.3696C109.789 91.3696 109.487 91.6758 109.487 92.0536C109.487 92.4313 109.789 92.7375 110.161 92.7375Z" fill="#39426A"/>
<path d="M114.871 96.8415C115.243 96.8415 115.544 96.5353 115.544 96.1576C115.544 95.7799 115.243 95.4736 114.871 95.4736C114.498 95.4736 114.197 95.7799 114.197 96.1576C114.197 96.5353 114.498 96.8415 114.871 96.8415Z" fill="#39426A"/>
<path d="M61.6786 92.7375C62.0507 92.7375 62.3524 92.4313 62.3524 92.0536C62.3524 91.6758 62.0507 91.3696 61.6786 91.3696C61.3065 91.3696 61.0049 91.6758 61.0049 92.0536C61.0049 92.4313 61.3065 92.7375 61.6786 92.7375Z" fill="#39426A"/>
<path d="M65.7211 96.8415C66.0932 96.8415 66.3949 96.5353 66.3949 96.1576C66.3949 95.7799 66.0932 95.4736 65.7211 95.4736C65.349 95.4736 65.0474 95.7799 65.0474 96.1576C65.0474 96.5353 65.349 96.8415 65.7211 96.8415Z" fill="#39426A"/>
<path d="M124.777 74.4244C124.899 74.2946 124.967 74.1221 124.967 73.9428C124.967 73.7635 124.899 73.591 124.777 73.4612C124.649 73.3354 124.478 73.2651 124.299 73.2651C124.121 73.2651 123.95 73.3354 123.822 73.4612L119.25 78.1024L111.646 70.3834L104.915 63.5508C104.86 63.464 104.785 63.391 104.698 63.3369C104.611 63.2828 104.513 63.2491 104.412 63.2382C104.31 63.2273 104.208 63.2395 104.112 63.2739C104.015 63.3082 103.928 63.364 103.855 63.437C103.783 63.51 103.727 63.5984 103.693 63.6959C103.658 63.7934 103.645 63.8975 103.655 64.0007C103.665 64.1038 103.698 64.2033 103.751 64.2921C103.803 64.3809 103.875 64.4567 103.96 64.5139L110.216 70.865L103.087 78.1024L95.4828 70.3834L88.7522 63.5508C88.697 63.4625 88.623 63.3878 88.5356 63.3324C88.4482 63.277 88.3496 63.2423 88.2472 63.2308C88.1447 63.2193 88.0411 63.2313 87.9438 63.266C87.8466 63.3006 87.7583 63.357 87.6854 63.431C87.6126 63.505 87.557 63.5946 87.5229 63.6933C87.4887 63.792 87.4769 63.8973 87.4882 64.0012C87.4996 64.1052 87.5338 64.2053 87.5883 64.294C87.6429 64.3828 87.7164 64.4579 87.8035 64.5139L94.0597 70.865L86.9303 78.1024L79.3266 70.3834L72.5891 63.5508C72.4612 63.4271 72.2914 63.3581 72.1147 63.3581C71.9381 63.3581 71.7682 63.4271 71.6403 63.5508C71.5185 63.6806 71.4505 63.8531 71.4505 64.0324C71.4505 64.2117 71.5185 64.3841 71.6403 64.5139L77.8966 70.865L70.7672 78.1024L63.1635 70.3834L61.4791 68.6735C61.3512 68.5498 61.1814 68.4808 61.0047 68.4808C60.8281 68.4808 60.6582 68.5498 60.5303 68.6735C60.4064 68.8037 60.3372 68.9776 60.3372 69.1586C60.3372 69.3396 60.4064 69.5135 60.5303 69.6436L61.7197 70.865L60.5303 72.0654C60.4085 72.1952 60.3405 72.3676 60.3405 72.547C60.3405 72.7263 60.4085 72.8987 60.5303 73.0285C60.6582 73.1523 60.8281 73.2213 61.0047 73.2213C61.1814 73.2213 61.3512 73.1523 61.4791 73.0285L62.6891 71.8072L69.8185 79.0446L60.5303 88.5013C60.4433 88.5573 60.3698 88.6325 60.3152 88.7212C60.2607 88.81 60.2264 88.9101 60.2151 89.014C60.2038 89.118 60.2156 89.2232 60.2497 89.322C60.2839 89.4207 60.3394 89.5103 60.4123 89.5843C60.4852 89.6583 60.5735 89.7147 60.6707 89.7493C60.768 89.784 60.8716 89.796 60.9741 89.7845C61.0765 89.773 61.175 89.7382 61.2625 89.6828C61.3499 89.6274 61.4239 89.5528 61.4791 89.4645L71.2485 79.554L78.8522 71.8351L85.9747 79.0446L73.6616 91.6071L66.0578 99.2841L61.4791 94.65C61.4239 94.5616 61.3499 94.487 61.2625 94.4316C61.175 94.3762 61.0765 94.3415 60.9741 94.33C60.8716 94.3185 60.768 94.3305 60.6707 94.3651C60.5735 94.3998 60.4852 94.4562 60.4123 94.5301C60.3394 94.6041 60.2839 94.6938 60.2497 94.7925C60.2156 94.8912 60.2038 94.9964 60.2151 95.1004C60.2264 95.2044 60.2607 95.3044 60.3152 95.3932C60.3698 95.4819 60.4433 95.5571 60.5303 95.6131L65.5766 100.743L77.8966 113.242L70.7672 120.48L63.1635 112.761L61.4791 111.058C61.3512 110.934 61.1814 110.865 61.0047 110.865C60.8281 110.865 60.6582 110.934 60.5303 111.058C60.4085 111.188 60.3405 111.36 60.3405 111.54C60.3405 111.719 60.4085 111.891 60.5303 112.021L61.7197 113.242L60.5303 114.471C60.4064 114.601 60.3372 114.775 60.3372 114.956C60.3372 115.137 60.4064 115.311 60.5303 115.441C60.6582 115.565 60.8281 115.634 61.0047 115.634C61.1814 115.634 61.3512 115.565 61.4791 115.441L62.6891 114.213L69.8185 121.45L63.5622 127.801C63.4748 127.935 63.4355 128.095 63.451 128.255C63.4666 128.415 63.5359 128.564 63.6473 128.678C63.7588 128.792 63.9056 128.864 64.0629 128.881C64.2202 128.898 64.3785 128.859 64.511 128.771L71.2485 121.932L78.8522 114.213L85.9747 121.45L79.7185 127.801C79.5946 127.931 79.5253 128.105 79.5253 128.286C79.5253 128.467 79.5946 128.641 79.7185 128.771C79.8467 128.897 80.018 128.967 80.1963 128.967C80.3746 128.967 80.5459 128.897 80.6741 128.771L87.4047 121.932L95.0085 114.213L102.138 121.45L95.8816 127.801C95.7577 127.931 95.6884 128.105 95.6884 128.286C95.6884 128.467 95.7577 128.641 95.8816 128.771C96.0095 128.895 96.1793 128.964 96.356 128.964C96.5326 128.964 96.7025 128.895 96.8303 128.771L103.568 121.932L111.172 114.213L118.301 121.45L112.038 127.801C111.914 127.931 111.845 128.105 111.845 128.286C111.845 128.467 111.914 128.641 112.038 128.771C112.167 128.898 112.34 128.968 112.519 128.967C112.696 128.966 112.866 128.896 112.993 128.771L119.724 121.932L124.777 116.809C124.861 116.751 124.93 116.675 124.982 116.587C125.033 116.498 125.064 116.4 125.074 116.297C125.083 116.195 125.07 116.092 125.036 115.996C125.001 115.899 124.947 115.812 124.875 115.739C124.804 115.667 124.717 115.611 124.622 115.576C124.527 115.542 124.426 115.528 124.325 115.538C124.225 115.547 124.127 115.579 124.04 115.631C123.953 115.683 123.879 115.754 123.822 115.839L119.25 120.48L111.646 112.761L99.326 100.261L106.455 93.0029L114.059 100.743L123.822 110.653C123.95 110.782 124.122 110.855 124.303 110.856C124.433 110.849 124.558 110.805 124.664 110.729C124.771 110.652 124.853 110.547 124.903 110.425C124.953 110.303 124.967 110.169 124.945 110.039C124.923 109.909 124.865 109.788 124.777 109.69L115.489 100.261L122.618 93.0029L123.822 94.2312C123.879 94.3159 123.953 94.3867 124.04 94.4387C124.127 94.4907 124.225 94.5225 124.325 94.532C124.426 94.5415 124.527 94.5284 124.622 94.4936C124.717 94.4588 124.804 94.4031 124.875 94.3306C124.947 94.2581 125.001 94.1705 125.036 94.074C125.07 93.9776 125.083 93.8746 125.074 93.7725C125.064 93.6704 125.033 93.5717 124.982 93.4833C124.93 93.3949 124.861 93.319 124.777 93.2611L123.595 92.0537L124.805 90.8324C124.888 90.7745 124.958 90.6986 125.009 90.6102C125.06 90.5218 125.092 90.4231 125.101 90.321C125.11 90.2189 125.097 90.1159 125.063 90.0195C125.029 89.923 124.974 89.8354 124.903 89.7629C124.831 89.6904 124.745 89.6347 124.65 89.5999C124.555 89.5651 124.453 89.552 124.353 89.5615C124.252 89.571 124.155 89.6028 124.068 89.6548C123.981 89.7068 123.906 89.7776 123.849 89.8623L122.144 91.6071L114.533 99.2841L107.411 92.0537L119.724 79.554L124.777 74.4244ZM87.4047 79.554L95.0085 71.8351L102.138 79.0446L89.8178 91.6071L82.2141 99.2841L75.0916 92.0537L87.4047 79.554ZM86.9303 120.48L79.3266 112.761L67.0066 100.261L74.136 93.0029L81.7397 100.743L94.0322 113.242L86.9303 120.48ZM110.216 113.242L103.087 120.48L95.4828 112.761L83.1697 100.261L90.2991 93.0029L97.9028 100.743L110.216 113.242ZM105.981 91.6071L98.3772 99.2841L91.2822 92.0537L103.568 79.554L111.172 71.8351L118.301 79.0446L105.981 91.6071Z" fill="#39426A"/>
<path d="M123.822 68.2755C123.95 68.4044 124.122 68.4771 124.303 68.4779C124.481 68.4753 124.651 68.4028 124.777 68.2755C124.901 68.1454 124.97 67.9714 124.97 67.7904C124.97 67.6094 124.901 67.4355 124.777 67.3054L121.072 63.5506C120.94 63.4816 120.79 63.4575 120.644 63.4819C120.498 63.5064 120.364 63.578 120.261 63.6863C120.158 63.7945 120.093 63.9335 120.074 64.0825C120.055 64.2316 120.084 64.3829 120.157 64.5137L123.822 68.2755Z" fill="#39426A"/>
<path d="M107.466 71.5491C107.838 71.5491 108.139 71.2429 108.139 70.8651C108.139 70.4874 107.838 70.1812 107.466 70.1812C107.094 70.1812 106.792 70.4874 106.792 70.8651C106.792 71.2429 107.094 71.5491 107.466 71.5491Z" fill="#39426A"/>
<path d="M102.757 75.6526C103.129 75.6526 103.431 75.3464 103.431 74.9686C103.431 74.5909 103.129 74.2847 102.757 74.2847C102.385 74.2847 102.083 74.5909 102.083 74.9686C102.083 75.3464 102.385 75.6526 102.757 75.6526Z" fill="#39426A"/>
<path d="M91.3095 71.5491C91.6816 71.5491 91.9832 71.2429 91.9832 70.8651C91.9832 70.4874 91.6816 70.1812 91.3095 70.1812C90.9374 70.1812 90.6357 70.4874 90.6357 70.8651C90.6357 71.2429 90.9374 71.5491 91.3095 71.5491Z" fill="#39426A"/>
<path d="M86.5937 75.6526C86.9658 75.6526 87.2674 75.3464 87.2674 74.9686C87.2674 74.5909 86.9658 74.2847 86.5937 74.2847C86.2216 74.2847 85.9199 74.5909 85.9199 74.9686C85.9199 75.3464 86.2216 75.6526 86.5937 75.6526Z" fill="#39426A"/>
<path d="M75.1464 71.5491C75.5185 71.5491 75.8202 71.2429 75.8202 70.8651C75.8202 70.4874 75.5185 70.1812 75.1464 70.1812C74.7743 70.1812 74.4727 70.4874 74.4727 70.8651C74.4727 71.2429 74.7743 71.5491 75.1464 71.5491Z" fill="#39426A"/>
<path d="M70.4306 75.6526C70.8027 75.6526 71.1043 75.3464 71.1043 74.9686C71.1043 74.5909 70.8027 74.2847 70.4306 74.2847C70.0585 74.2847 69.7568 74.5909 69.7568 74.9686C69.7568 75.3464 70.0585 75.6526 70.4306 75.6526Z" fill="#39426A"/>
<path d="M123.629 71.5491C124.001 71.5491 124.303 71.2429 124.303 70.8651C124.303 70.4874 124.001 70.1812 123.629 70.1812C123.257 70.1812 122.956 70.4874 122.956 70.8651C122.956 71.2429 123.257 71.5491 123.629 71.5491Z" fill="#39426A"/>
<path d="M119.587 75.6526C119.959 75.6526 120.261 75.3464 120.261 74.9686C120.261 74.5909 119.959 74.2847 119.587 74.2847C119.215 74.2847 118.913 74.5909 118.913 74.9686C118.913 75.3464 119.215 75.6526 119.587 75.6526Z" fill="#39426A"/>
</g>
<g clip-path="url(#clip1_201_407)">
<path d="M171.44 148.223C171.487 148.11 171.51 147.988 171.508 147.866C171.505 147.743 171.477 147.623 171.425 147.512C171.373 147.401 171.299 147.302 171.207 147.221C171.115 147.141 171.007 147.08 170.89 147.043C166.125 145.701 161.043 146.048 156.505 148.024C158.64 146.717 160.432 144.918 161.728 142.776C162.848 140.927 163.556 138.858 163.805 136.71C163.809 136.567 163.778 136.424 163.714 136.296C163.649 136.168 163.554 136.058 163.436 135.976C163.302 135.89 163.149 135.839 162.99 135.829C162.831 135.818 162.673 135.849 162.529 135.917C160.38 137.058 158.53 138.688 157.129 140.677C155.728 142.666 154.815 144.957 154.465 147.365C154.301 147.594 154.125 147.814 153.959 148.043C154.239 146.865 154.427 145.668 154.523 144.461C154.701 142.298 154.54 140.12 154.047 138.007C153.988 137.784 153.845 137.592 153.648 137.472C153.451 137.353 153.215 137.314 152.99 137.365C152.878 137.392 152.772 137.442 152.679 137.51C152.586 137.579 152.507 137.665 152.447 137.764C151.062 139.975 150.155 142.452 149.785 145.035C149.415 147.618 149.591 150.249 150.3 152.761C148.822 154.555 147.301 156.312 145.702 157.992C148.006 153.343 149.318 148.265 149.556 143.081C149.598 142.871 149.563 142.652 149.456 142.467C149.35 142.281 149.179 142.14 148.977 142.07C148.774 142.001 148.553 142.007 148.355 142.088C148.157 142.169 147.995 142.32 147.899 142.512C146.048 145.116 144.51 147.93 143.319 150.895C141.728 154.815 140.734 158.951 140.371 163.166C139.382 164.056 138.376 164.927 137.354 165.779C140.061 159.675 141.618 153.125 141.947 146.456C141.941 146.257 141.876 146.064 141.76 145.902C141.677 145.796 141.571 145.71 141.45 145.651C141.328 145.592 141.195 145.562 141.06 145.563C140.925 145.564 140.792 145.595 140.672 145.655C140.551 145.715 140.446 145.802 140.364 145.909C135.648 151.95 133.17 162.245 133.81 168.574C132.357 169.667 130.873 170.718 129.357 171.727C130.557 169.511 131.538 167.183 132.284 164.776C133.737 160.071 134.289 155.135 133.911 150.226C133.882 149.998 133.77 149.79 133.595 149.642C133.42 149.493 133.197 149.416 132.968 149.424C132.708 149.466 132.474 149.604 132.311 149.811C129.593 153.916 127.675 158.499 126.659 163.317C125.916 166.802 125.665 170.375 125.914 173.93C123.663 175.302 121.357 176.595 118.99 177.789C118.783 177.893 118.625 178.076 118.553 178.296C118.48 178.517 118.498 178.757 118.603 178.964C118.707 179.172 118.89 179.329 119.11 179.401C119.331 179.474 119.571 179.456 119.778 179.352C122.197 178.132 124.553 176.81 126.853 175.407C133.13 178.469 144.244 179.713 151.723 177.528C151.877 177.487 152.016 177.404 152.126 177.289C152.237 177.173 152.313 177.03 152.348 176.875C152.382 176.719 152.374 176.557 152.323 176.406C152.272 176.255 152.18 176.121 152.058 176.018C148.643 174.382 144.988 173.305 141.231 172.829C137.805 172.365 134.334 172.353 130.905 172.791C132.188 171.921 133.45 171.023 134.691 170.097C139.007 171.683 143.582 172.445 148.179 172.343C151.801 172.281 155.387 171.609 158.786 170.357C158.916 170.268 159.02 170.146 159.086 170.002C159.151 169.859 159.177 169.701 159.16 169.544C159.144 169.388 159.085 169.239 158.99 169.113C158.895 168.987 158.768 168.889 158.622 168.83C152.146 166.373 145.102 165.826 138.324 167.252C139.418 166.349 140.486 165.417 141.54 164.468C143.304 165.008 145.113 165.39 146.945 165.609C152.649 166.286 158.43 165.375 163.65 162.978C163.857 162.873 164.016 162.693 164.093 162.474C164.17 162.255 164.16 162.015 164.064 161.804C163.95 161.599 163.769 161.44 163.551 161.353C157.539 159.438 151.09 159.373 145.04 161.167C145.838 160.374 146.622 159.567 147.393 158.746C148.28 158.948 149.177 159.105 150.08 159.216C156.255 159.96 162.497 158.552 167.755 155.228C167.897 155.135 168.008 155.002 168.076 154.846C168.144 154.69 168.166 154.518 168.139 154.35C168.111 154.182 168.036 154.026 167.921 153.9C167.807 153.774 167.659 153.683 167.495 153.639C161.911 152.307 156.049 152.778 150.75 154.984C151.578 154.008 152.392 153.02 153.182 152.012C154.103 152.249 155.039 152.425 155.983 152.538C160.762 153.184 167.57 151.794 171.44 148.223ZM159.035 141.051C161.9 137.789 162.283 138.042 160.227 141.875C159.289 143.43 158.05 144.784 156.584 145.856C157.075 144.108 157.908 142.475 159.035 141.051ZM151.637 144.576C151.886 143.357 152.262 142.167 152.757 141.026C152.854 142.124 152.861 143.228 152.778 144.327C152.617 146.328 152.188 148.299 151.503 150.185C151.217 148.322 151.263 146.423 151.637 144.576ZM147.482 146.401C146.775 151.264 145.086 155.931 142.518 160.12C143.346 155.289 145.027 150.644 147.482 146.401ZM137.23 155.887C137.924 153.805 138.823 151.797 139.911 149.891C139.269 155.313 137.789 160.602 135.523 165.569C135.622 162.276 136.196 159.015 137.23 155.887ZM128.372 163.679C129.146 160.022 130.462 156.5 132.277 153.232C132.274 156.97 131.713 160.687 130.612 164.26C129.852 166.729 128.833 169.111 127.573 171.366C127.568 168.783 127.836 166.206 128.372 163.679ZM148.5 176.406C142.235 177.395 135.823 176.813 129.839 174.712C136.104 173.72 142.517 174.302 148.5 176.406ZM148.146 168.28C150.609 168.448 153.046 168.886 155.413 169.588C153.03 170.191 150.588 170.528 148.132 170.594C144.565 170.688 141.006 170.224 137.583 169.219C141.033 168.355 144.598 168.039 148.146 168.28ZM153.746 161.595C156.046 161.576 158.34 161.829 160.581 162.348C158.43 163.129 156.193 163.65 153.919 163.903C150.621 164.266 147.284 164.073 144.05 163.331C147.162 162.212 150.439 161.625 153.746 161.595ZM158.443 154.777C160.557 154.546 162.692 154.587 164.795 154.899C162.896 155.871 160.881 156.598 158.798 157.061C155.804 157.722 152.714 157.835 149.679 157.395C152.419 156.001 155.388 155.114 158.443 154.777ZM163.144 150.391C160.53 151.024 157.813 151.111 155.162 150.648C157.527 149.287 160.144 148.42 162.854 148.101C164.708 147.889 166.584 147.947 168.421 148.273C166.772 149.227 164.995 149.94 163.144 150.391Z" fill="url(#paint0_linear_201_407)"/>
</g>
<g clip-path="url(#clip2_201_407)">
<path d="M6.17574 151.748C6.12884 151.634 6.106 151.513 6.10866 151.39C6.11133 151.268 6.13945 151.147 6.19122 151.036C6.243 150.925 6.3173 150.826 6.40941 150.746C6.50152 150.665 6.60942 150.604 6.72624 150.568C11.4909 149.226 16.5731 149.572 21.1114 151.549C18.9758 150.242 17.1845 148.442 15.8877 146.301C14.768 144.451 14.0599 142.382 13.8115 140.234C13.8068 140.091 13.8381 139.949 13.9025 139.821C13.9668 139.692 14.0623 139.582 14.1801 139.5C14.3138 139.414 14.4673 139.363 14.6261 139.353C14.7849 139.343 14.9437 139.373 15.0874 139.442C17.2362 140.582 19.0862 142.213 20.4872 144.202C21.8882 146.191 22.8009 148.482 23.1512 150.889C23.3148 151.118 23.4914 151.339 23.6569 151.567C23.3771 150.389 23.1888 149.192 23.0935 147.985C22.9154 145.822 23.076 143.645 23.5694 141.531C23.6283 141.308 23.7713 141.117 23.9684 140.997C24.1656 140.877 24.4014 140.839 24.6264 140.889C24.7387 140.917 24.8444 140.966 24.9376 141.035C25.0307 141.103 25.1094 141.189 25.1692 141.288C26.5545 143.499 27.4613 145.976 27.8312 148.559C28.201 151.142 28.0257 153.774 27.3164 156.285C28.7941 158.079 30.3154 159.836 31.9145 161.517C29.6101 156.867 28.2978 151.789 28.0607 146.605C28.0183 146.395 28.0536 146.177 28.1601 145.991C28.2666 145.805 28.437 145.664 28.6396 145.595C28.8422 145.525 29.0632 145.531 29.2614 145.613C29.4597 145.694 29.6216 145.844 29.7172 146.036C31.5686 148.64 33.1058 151.454 34.2969 154.419C35.8879 158.339 36.8819 162.476 37.2457 166.69C38.2345 167.581 39.2402 168.452 40.2626 169.303C37.5555 163.2 35.9982 156.649 35.669 149.98C35.6753 149.781 35.7403 149.588 35.8557 149.426C35.9389 149.32 36.0452 149.234 36.1666 149.176C36.288 149.117 36.4212 149.087 36.556 149.087C36.6908 149.088 36.8237 149.12 36.9445 149.18C37.0652 149.24 37.1706 149.327 37.2527 149.434C41.9683 155.475 44.4462 165.769 43.8067 172.098C45.2591 173.191 46.7433 174.242 48.2594 175.251C47.0588 173.035 46.0782 170.707 45.3318 168.3C43.8791 163.596 43.3273 158.659 43.7055 153.75C43.7339 153.523 43.8466 153.314 44.0212 153.166C44.1957 153.018 44.4196 152.94 44.6486 152.949C44.9081 152.991 45.1425 153.129 45.3054 153.335C48.0236 157.441 49.9412 162.023 50.9572 166.841C51.7004 170.327 51.951 173.899 51.7019 177.454C53.9531 178.827 56.2588 180.12 58.6264 181.313C58.8336 181.418 58.9908 181.6 59.0635 181.821C59.1361 182.041 59.1181 182.281 59.0136 182.489C58.9091 182.696 58.7265 182.853 58.5061 182.926C58.2856 182.998 58.0454 182.98 57.8381 182.876C55.4188 181.656 53.0629 180.334 50.7628 178.931C44.4861 181.993 33.3722 183.237 25.8936 181.052C25.7397 181.011 25.6 180.928 25.4898 180.813C25.3796 180.698 25.3031 180.555 25.2685 180.399C25.2338 180.243 25.2425 180.081 25.2935 179.93C25.3445 179.779 25.4359 179.645 25.5578 179.542C28.9729 177.907 32.6286 176.83 36.3852 176.353C39.8107 175.89 43.2822 175.877 46.7109 176.316C45.4283 175.445 44.1664 174.547 42.9255 173.622C38.6096 175.208 34.0344 175.97 29.4374 175.867C25.8152 175.805 22.2293 175.134 18.8299 173.882C18.6999 173.793 18.5965 173.67 18.5306 173.527C18.4647 173.384 18.4388 173.225 18.4557 173.069C18.4726 172.912 18.5316 172.763 18.6264 172.637C18.7213 172.512 18.8485 172.414 18.9944 172.355C25.4702 169.898 32.5146 169.35 39.2923 170.776C38.1985 169.874 37.1299 168.941 36.076 167.992C34.3121 168.533 32.5035 168.915 30.6717 169.134C24.9671 169.81 19.1864 168.9 13.9661 166.502C13.759 166.398 13.6002 166.217 13.523 165.998C13.4459 165.78 13.4562 165.539 13.552 165.328C13.6662 165.124 13.8472 164.964 14.0648 164.878C20.0773 162.962 26.5266 162.897 32.5764 164.692C31.7786 163.899 30.9941 163.092 30.2229 162.271C29.336 162.473 28.4393 162.629 27.5364 162.74C21.3614 163.484 15.1188 162.076 9.8612 158.753C9.71943 158.659 9.60781 158.526 9.53977 158.37C9.47174 158.214 9.45018 158.042 9.4777 157.874C9.50521 157.706 9.58063 157.55 9.69487 157.424C9.80912 157.298 9.95733 157.208 10.1217 157.164C15.7052 155.831 21.5673 156.302 26.8665 158.509C26.0385 157.532 25.2242 156.544 24.4344 155.536C23.5134 155.773 22.5777 155.949 21.6334 156.062C16.8543 156.708 10.0458 155.318 6.17574 151.748ZM18.5811 144.575C15.7161 141.314 15.3337 141.566 17.3887 145.4C18.3277 146.955 19.5662 148.308 21.0322 149.381C20.5412 147.632 19.7081 145.999 18.5811 144.575ZM25.9794 148.1C25.7299 146.881 25.3545 145.692 24.8594 144.55C24.7619 145.648 24.7549 146.752 24.8385 147.852C24.9989 149.853 25.4279 151.823 26.1137 153.71C26.3991 151.847 26.3536 149.948 25.9794 148.1ZM30.1347 149.925C30.8411 154.788 32.5299 159.456 35.0981 163.645C34.2702 158.814 32.5896 154.168 30.1347 149.925ZM40.3865 159.412C39.6919 157.33 38.7936 155.321 37.7048 153.416C38.3471 158.837 39.8275 164.126 42.0931 169.093C41.9945 165.801 41.4197 162.54 40.3865 159.412ZM49.2447 167.203C48.4705 163.546 47.1541 160.025 45.3393 156.756C45.342 160.495 45.9032 164.212 47.0044 167.784C47.7646 170.253 48.7831 172.635 50.043 174.89C50.0478 172.307 49.7802 169.731 49.2447 167.203ZM29.1162 179.931C35.3807 180.92 41.7929 180.337 47.7769 178.236C41.5124 177.244 35.0995 177.827 29.1162 179.931ZM29.4699 171.804C27.007 171.972 24.5702 172.411 22.2034 173.112C24.5859 173.715 27.0279 174.052 29.4847 174.118C33.0512 174.213 36.6106 173.749 40.0336 172.743C36.5831 171.88 33.0185 171.563 29.4699 171.804ZM23.8703 165.119C21.5702 165.1 19.2759 165.353 17.0352 165.873C19.1864 166.653 21.4227 167.175 23.6971 167.427C26.9956 167.791 30.3318 167.597 33.5663 166.855C30.4547 165.736 27.1768 165.149 23.8703 165.119ZM19.1731 158.301C17.0591 158.071 14.9244 158.112 12.8208 158.423C14.72 159.396 16.7353 160.122 18.8181 160.585C21.8126 161.247 24.9021 161.36 27.9369 160.919C25.1976 159.525 22.2284 158.638 19.1731 158.301ZM14.4718 153.916C17.0866 154.548 19.8036 154.636 22.4538 154.173C20.089 152.811 17.4723 151.944 14.7624 151.625C12.9079 151.413 11.0325 151.471 9.19481 151.798C10.844 152.751 12.6209 153.464 14.4718 153.916Z" fill="url(#paint1_linear_201_407)"/>
</g>
<defs>
<linearGradient id="paint0_linear_201_407" x1="121.291" y1="155.259" x2="169.944" y2="161.079" gradientUnits="userSpaceOnUse">
<stop stop-color="#FFDE00"/>
<stop offset="1" stop-color="#FD5900"/>
</linearGradient>
<linearGradient id="paint1_linear_201_407" x1="56.3248" y1="158.783" x2="7.67173" y2="164.604" gradientUnits="userSpaceOnUse">
<stop stop-color="#FFDE00"/>
<stop offset="1" stop-color="#FD5900"/>
</linearGradient>
<clipPath id="clip0_201_407">
<rect width="66" height="67" fill="white" transform="translate(59.6572 62.2944)"/>
</clipPath>
<clipPath id="clip1_201_407">
<rect width="56" height="56" fill="white" transform="translate(121.143 127.041) rotate(6.82234)"/>
</clipPath>
<clipPath id="clip2_201_407">
<rect width="56" height="56" fill="white" transform="matrix(-0.992919 0.118791 0.118791 0.992919 56.4736 130.565)"/>
</clipPath>
</defs>
</svg>
