<svg width="186" height="193" viewBox="0 0 186 193" fill="none" xmlns="http://www.w3.org/2000/svg">
<rect x="95.5952" y="1.21687" width="126.169" height="133.283" rx="7.5" transform="rotate(45 95.5952 1.21687)" fill="#FEF0D3" stroke="#D18D05"/>
<path d="M125.08 60.9473V76.9473H109.08L125.08 60.9473Z" fill="#A0DCE0"/>
<path d="M125.08 76.9473V92.9473L109.08 76.9473H125.08Z" fill="#B2EBF2"/>
<path d="M125.08 92.9473V108.947H109.08L125.08 92.9473Z" fill="#A0DCE0"/>
<path d="M77.0801 76.9473H61.0801V60.9473L77.0801 76.9473Z" fill="#A0DCE0"/>
<path d="M77.0801 76.9473L61.0801 92.9473V76.9473H77.0801Z" fill="#B2EBF2"/>
<path d="M77.0801 108.947H61.0801V92.9473L77.0801 108.947Z" fill="#A0DCE0"/>
<path d="M125.08 108.947V124.947L109.08 108.947H125.08Z" fill="#B2EBF2"/>
<path d="M77.0801 108.947L61.0801 124.947V108.947H77.0801Z" fill="#B2EBF2"/>
<path d="M125.08 92.9473H109.08V76.9473L125.08 92.9473Z" fill="#A0DCE0"/>
<path d="M109.08 76.9473V92.9473H93.0801L109.08 76.9473Z" fill="#C4EFF2"/>
<path d="M93.0801 92.9473H77.0801V76.9473L93.0801 92.9473Z" fill="#A0DCE0"/>
<path d="M77.0801 76.9473V92.9473H61.0801L77.0801 76.9473Z" fill="#A0DCE0"/>
<path d="M77.0801 92.9473V108.947L61.0801 92.9473H77.0801Z" fill="#B2EBF2"/>
<path d="M93.0801 92.9473L77.0801 108.947V92.9473H93.0801Z" fill="#C4EFF2"/>
<path d="M109.08 92.9473V108.947L93.0801 92.9473H109.08Z" fill="#A0DCE0"/>
<path d="M125.08 92.9473L109.08 108.947V92.9473H125.08Z" fill="#B2EBF2"/>
<path d="M93.0801 92.9473V108.947H77.0801L93.0801 92.9473Z" fill="#A0DCE0"/>
<path d="M109.08 108.947H93.0801V92.9473L109.08 108.947Z" fill="#C4EFF2"/>
<path d="M125.08 124.947H109.08V108.947L125.08 124.947Z" fill="#A0DCE0"/>
<path d="M109.08 108.947V124.947H93.0801L109.08 108.947Z" fill="#94D1D3"/>
<path d="M109.08 108.947L93.0801 124.947V108.947H109.08Z" fill="#B2EBF2"/>
<path d="M93.0801 108.947V124.947L77.0801 108.947H93.0801Z" fill="#C4EFF2"/>
<path d="M93.0801 124.947H77.0801V108.947L93.0801 124.947Z" fill="#94D1D3"/>
<path d="M77.0801 108.947V124.947H61.0801L77.0801 108.947Z" fill="#A0DCE0"/>
<path d="M77.0801 60.9473V76.9473L61.0801 60.9473H77.0801Z" fill="#B2EBF2"/>
<path d="M93.0801 60.9473L77.0801 76.9473V60.9473H93.0801Z" fill="#94D1D3"/>
<path d="M93.0801 60.9473V76.9473H77.0801L93.0801 60.9473Z" fill="#B2EBF2"/>
<path d="M109.08 76.9473H93.0801V60.9473L109.08 76.9473Z" fill="#C4EFF2"/>
<path d="M109.08 76.9473L93.0801 92.9473V76.9473H109.08Z" fill="#A0DCE0"/>
<path d="M93.0801 76.9473V92.9473L77.0801 76.9473H93.0801Z" fill="#C4EFF2"/>
<path d="M109.08 60.9473V76.9473L93.0801 60.9473H109.08Z" fill="#94D1D3"/>
<path d="M125.08 60.9473L109.08 76.9473V60.9473H125.08Z" fill="#B2EBF2"/>
<g clip-path="url(#clip0_201_306)">
<path d="M171.863 147.938C171.91 147.825 171.933 147.704 171.93 147.581C171.928 147.459 171.9 147.338 171.848 147.227C171.796 147.116 171.722 147.017 171.63 146.937C171.538 146.856 171.43 146.795 171.313 146.759C166.548 145.416 161.466 145.763 156.928 147.739C159.063 146.433 160.855 144.633 162.151 142.492C163.271 140.642 163.979 138.573 164.228 136.425C164.232 136.282 164.201 136.14 164.137 136.011C164.072 135.883 163.977 135.773 163.859 135.691C163.725 135.605 163.572 135.554 163.413 135.544C163.254 135.534 163.095 135.564 162.952 135.633C160.803 136.773 158.953 138.404 157.552 140.393C156.151 142.381 155.238 144.672 154.888 147.08C154.724 147.309 154.548 147.53 154.382 147.758C154.662 146.58 154.85 145.383 154.946 144.176C155.124 142.013 154.963 139.836 154.47 137.722C154.411 137.499 154.268 137.307 154.071 137.188C153.874 137.068 153.638 137.029 153.413 137.08C153.3 137.108 153.195 137.157 153.101 137.225C153.008 137.294 152.93 137.38 152.87 137.479C151.485 139.69 150.578 142.167 150.208 144.75C149.838 147.333 150.013 149.965 150.723 152.476C149.245 154.27 147.724 156.027 146.125 157.708C148.429 153.058 149.741 147.98 149.978 142.796C150.021 142.586 149.985 142.368 149.879 142.182C149.772 141.996 149.602 141.855 149.399 141.786C149.197 141.716 148.976 141.722 148.778 141.804C148.579 141.885 148.417 142.035 148.322 142.227C146.47 144.831 144.933 147.645 143.742 150.61C142.151 154.53 141.157 158.667 140.793 162.881C139.805 163.772 138.799 164.643 137.776 165.494C140.484 159.391 142.041 152.84 142.37 146.171C142.364 145.972 142.299 145.779 142.183 145.617C142.1 145.511 141.994 145.425 141.872 145.366C141.751 145.308 141.618 145.278 141.483 145.278C141.348 145.279 141.215 145.311 141.095 145.371C140.974 145.431 140.868 145.517 140.786 145.624C136.071 151.666 133.593 161.96 134.232 168.289C132.78 169.382 131.296 170.433 129.78 171.442C130.98 169.226 131.961 166.898 132.707 164.491C134.16 159.787 134.712 154.85 134.334 149.941C134.305 149.714 134.192 149.505 134.018 149.357C133.843 149.209 133.619 149.131 133.39 149.14C133.131 149.182 132.897 149.319 132.734 149.526C130.015 153.632 128.098 158.214 127.082 163.032C126.339 166.517 126.088 170.09 126.337 173.645C124.086 175.018 121.78 176.31 119.413 177.504C119.205 177.609 119.048 177.791 118.976 178.012C118.903 178.232 118.921 178.472 119.025 178.68C119.13 178.887 119.313 179.044 119.533 179.117C119.753 179.189 119.994 179.171 120.201 179.067C122.62 177.847 124.976 176.525 127.276 175.122C133.553 178.184 144.667 179.428 152.145 177.243C152.299 177.202 152.439 177.119 152.549 177.004C152.659 176.889 152.736 176.746 152.771 176.59C152.805 176.434 152.797 176.272 152.746 176.121C152.695 175.97 152.603 175.836 152.481 175.733C149.066 174.098 145.41 173.021 141.654 172.544C138.228 172.081 134.757 172.068 131.328 172.507C132.611 171.636 133.873 170.738 135.114 169.813C139.429 171.399 144.005 172.161 148.602 172.058C152.224 171.996 155.81 171.325 159.209 170.072C159.339 169.983 159.443 169.861 159.508 169.718C159.574 169.575 159.6 169.416 159.583 169.26C159.566 169.103 159.507 168.954 159.413 168.828C159.318 168.702 159.191 168.605 159.045 168.545C152.569 166.089 145.524 165.541 138.747 166.967C139.841 166.065 140.909 165.132 141.963 164.183C143.727 164.724 145.536 165.106 147.367 165.325C153.072 166.001 158.853 165.091 164.073 162.693C164.28 162.589 164.439 162.408 164.516 162.189C164.593 161.971 164.583 161.73 164.487 161.519C164.373 161.314 164.192 161.155 163.974 161.068C157.962 159.153 151.512 159.088 145.463 160.883C146.26 160.09 147.045 159.283 147.816 158.461C148.703 158.664 149.6 158.82 150.503 158.931C156.678 159.675 162.92 158.267 168.178 154.944C168.32 154.85 168.431 154.717 168.499 154.561C168.567 154.405 168.589 154.233 168.561 154.065C168.534 153.897 168.458 153.741 168.344 153.615C168.23 153.489 168.082 153.399 167.917 153.355C162.334 152.022 156.472 152.493 151.173 154.7C152.001 153.723 152.815 152.735 153.605 151.727C154.526 151.964 155.461 152.14 156.406 152.253C161.185 152.899 167.993 151.509 171.863 147.938ZM159.458 140.766C162.323 137.505 162.705 137.757 160.65 141.591C159.711 143.146 158.473 144.499 157.007 145.571C157.498 143.823 158.331 142.19 159.458 140.766ZM152.06 144.291C152.309 143.072 152.685 141.883 153.18 140.741C153.277 141.839 153.284 142.943 153.201 144.042C153.04 146.044 152.611 148.014 151.925 149.901C151.64 148.038 151.685 146.139 152.06 144.291ZM147.904 146.116C147.198 150.979 145.509 155.647 142.941 159.836C143.769 155.005 145.45 150.359 147.904 146.116ZM137.653 155.603C138.347 153.521 139.245 151.512 140.334 149.607C139.692 155.028 138.212 160.317 135.946 165.284C136.045 161.992 136.619 158.731 137.653 155.603ZM128.794 163.394C129.569 159.737 130.885 156.216 132.7 152.947C132.697 156.686 132.136 160.403 131.035 163.975C130.274 166.444 129.256 168.826 127.996 171.081C127.991 168.498 128.259 165.921 128.794 163.394ZM148.923 176.121C142.658 177.11 136.246 176.528 130.262 174.427C136.527 173.435 142.94 174.017 148.923 176.121ZM148.569 167.995C151.032 168.163 153.469 168.602 155.836 169.303C153.453 169.906 151.011 170.243 148.554 170.309C144.988 170.404 141.428 169.94 138.005 168.934C141.456 168.071 145.021 167.754 148.569 167.995ZM154.169 161.31C156.469 161.291 158.763 161.544 161.004 162.064C158.853 162.844 156.616 163.366 154.342 163.618C151.043 163.982 147.707 163.788 144.473 163.046C147.584 161.927 150.862 161.34 154.169 161.31ZM158.866 154.492C160.98 154.262 163.115 154.303 165.218 154.614C163.319 155.587 161.304 156.313 159.221 156.776C156.226 157.437 153.137 157.551 150.102 157.11C152.841 155.716 155.811 154.829 158.866 154.492ZM163.567 150.107C160.952 150.739 158.235 150.826 155.585 150.364C157.95 149.002 160.567 148.135 163.277 147.816C165.131 147.604 167.007 147.662 168.844 147.989C167.195 148.942 165.418 149.655 163.567 150.107Z" fill="url(#paint0_linear_201_306)"/>
</g>
<g clip-path="url(#clip1_201_306)">
<path d="M6.59859 151.463C6.55169 151.35 6.52885 151.228 6.53151 151.106C6.53418 150.983 6.5623 150.863 6.61407 150.752C6.66585 150.641 6.74016 150.542 6.83227 150.461C6.92437 150.38 7.03228 150.32 7.1491 150.283C11.9138 148.941 16.9959 149.287 21.5343 151.264C19.3986 149.957 17.6073 148.158 16.3106 146.016C15.1909 144.166 14.4827 142.097 14.2343 139.95C14.2297 139.806 14.2609 139.664 14.3253 139.536C14.3897 139.408 14.4851 139.298 14.6029 139.216C14.7366 139.129 14.8901 139.079 15.0489 139.068C15.2077 139.058 15.3665 139.089 15.5102 139.157C17.6591 140.297 19.509 141.928 20.9101 143.917C22.3111 145.906 23.2237 148.197 23.5741 150.604C23.7376 150.834 23.9142 151.054 24.0798 151.282C23.8 150.105 23.6116 148.907 23.5163 147.701C23.3382 145.538 23.4988 143.36 23.9923 141.246C24.0511 141.023 24.1941 140.832 24.3913 140.712C24.5884 140.592 24.8243 140.554 25.0493 140.605C25.1615 140.632 25.2673 140.681 25.3604 140.75C25.4536 140.818 25.5323 140.904 25.592 141.003C26.9774 143.215 27.8842 145.691 28.254 148.274C28.6238 150.857 28.4485 153.489 27.7393 156C29.217 157.794 30.7382 159.552 32.3373 161.232C30.033 156.582 28.7206 151.504 28.4836 146.32C28.4411 146.11 28.4765 145.892 28.583 145.706C28.6895 145.52 28.8599 145.38 29.0625 145.31C29.2651 145.24 29.486 145.247 29.6843 145.328C29.8825 145.409 30.0445 145.56 30.1401 145.751C31.9915 148.356 33.5287 151.169 34.7198 154.134C36.3107 158.054 37.3047 162.191 37.6685 166.406C38.6574 167.296 39.663 168.167 40.6855 169.019C37.9783 162.915 36.421 156.364 36.0919 149.695C36.0982 149.496 36.1631 149.304 36.2786 149.141C36.3617 149.035 36.4681 148.95 36.5895 148.891C36.7108 148.832 36.844 148.802 36.9789 148.803C37.1137 148.803 37.2466 148.835 37.3673 148.895C37.4881 148.955 37.5935 149.042 37.6755 149.149C42.3911 155.19 44.869 165.485 44.2295 171.814C45.6819 172.906 47.1662 173.957 48.6823 174.967C47.4816 172.751 46.501 170.423 45.7547 168.016C44.3019 163.311 43.7502 158.375 44.1284 153.465C44.1568 153.238 44.2694 153.03 44.444 152.881C44.6186 152.733 44.8425 152.655 45.0714 152.664C45.331 152.706 45.5653 152.844 45.7283 153.05C48.4464 157.156 50.364 161.738 51.3801 166.556C52.1232 170.042 52.3739 173.615 52.1247 177.17C54.3759 178.542 56.6817 179.835 59.0492 181.029C59.2565 181.133 59.4137 181.316 59.4863 181.536C59.5589 181.757 59.541 181.997 59.4365 182.204C59.3319 182.411 59.1494 182.568 58.9289 182.641C58.7085 182.714 58.4682 182.696 58.261 182.591C55.8416 181.371 53.4857 180.049 51.1856 178.646C44.9089 181.708 33.795 182.953 26.3164 180.768C26.1625 180.726 26.0229 180.643 25.9127 180.528C25.8025 180.413 25.7259 180.27 25.6913 180.114C25.6567 179.959 25.6654 179.797 25.7164 179.646C25.7674 179.495 25.8588 179.361 25.9806 179.258C29.3958 177.622 33.0515 176.545 36.8081 176.068C40.2336 175.605 43.705 175.592 47.1338 176.031C45.8511 175.161 44.5893 174.263 43.3483 173.337C39.0325 174.923 34.4572 175.685 29.8603 175.583C26.2381 175.52 22.6522 174.849 19.2527 173.597C19.1228 173.508 19.0193 173.385 18.9535 173.242C18.8876 173.099 18.8617 172.941 18.8786 172.784C18.8954 172.628 18.9544 172.478 19.0493 172.353C19.1441 172.227 19.2713 172.129 19.4173 172.07C25.893 169.613 32.9375 169.065 39.7152 170.492C38.6214 169.589 37.5528 168.657 36.4988 167.708C34.7349 168.248 32.9263 168.63 31.0946 168.849C25.39 169.526 19.6093 168.615 14.389 166.218C14.1818 166.113 14.0231 165.933 13.9459 165.714C13.8687 165.495 13.8791 165.255 13.9749 165.043C14.089 164.839 14.2701 164.68 14.4877 164.593C20.5002 162.678 26.9495 162.613 32.9993 164.407C32.2014 163.614 31.4169 162.807 30.6457 161.986C29.7588 162.188 28.8622 162.345 27.9593 162.456C21.7843 163.2 15.5416 161.791 10.2841 158.468C10.1423 158.374 10.0307 158.241 9.96262 158.085C9.89459 157.93 9.87303 157.757 9.90055 157.589C9.92806 157.422 10.0035 157.265 10.1177 157.139C10.232 157.013 10.3802 156.923 10.5445 156.879C16.128 155.547 21.9902 156.018 27.2894 158.224C26.4613 157.248 25.647 156.259 24.8573 155.251C23.9362 155.489 23.0005 155.664 22.0562 155.778C17.2772 156.424 10.4686 155.033 6.59859 151.463ZM19.004 144.291C16.1389 141.029 15.7565 141.282 17.8116 145.115C18.7506 146.67 19.989 148.023 21.455 149.096C20.9641 147.348 20.1309 145.714 19.004 144.291ZM26.4023 147.816C26.1528 146.597 25.7774 145.407 25.2822 144.266C25.1847 145.364 25.1777 146.468 25.2613 147.567C25.4218 149.568 25.8507 151.538 26.5365 153.425C26.8219 151.562 26.7765 149.663 26.4023 147.816ZM30.5576 149.641C31.264 154.503 32.9527 159.171 35.521 163.36C34.6931 158.529 33.0124 153.883 30.5576 149.641ZM40.8094 159.127C40.1147 157.045 39.2165 155.037 38.1276 153.131C38.7699 158.553 40.2503 163.842 42.5159 168.809C42.4174 165.516 41.8426 162.255 40.8094 159.127ZM49.6675 166.919C48.8933 163.261 47.577 159.74 45.7621 156.472C45.7648 160.21 46.3261 163.927 47.4273 167.5C48.1875 169.969 49.206 172.35 50.4658 174.606C50.4706 172.022 50.2031 169.446 49.6675 166.919ZM29.539 179.646C35.8036 180.635 42.2157 180.053 48.1997 177.951C41.9352 176.96 35.5224 177.542 29.539 179.646ZM29.8928 171.52C27.4299 171.687 24.993 172.126 22.6262 172.828C25.0088 173.43 27.4507 173.768 29.9075 173.833C33.474 173.928 37.0334 173.464 40.4565 172.458C37.006 171.595 33.4414 171.278 29.8928 171.52ZM24.2931 164.835C21.9931 164.816 19.6988 165.069 17.4581 165.588C19.6093 166.368 21.8456 166.89 24.1199 167.142C27.4185 167.506 30.7547 167.313 33.9891 166.571C30.8775 165.452 27.5997 164.865 24.2931 164.835ZM19.596 158.016C17.482 157.786 15.3472 157.827 13.2437 158.139C15.1428 159.111 17.1581 159.838 19.2409 160.301C22.2354 160.962 25.3249 161.075 28.3598 160.635C25.6204 159.24 22.6513 158.353 19.596 158.016ZM14.8946 153.631C17.5095 154.263 20.2265 154.351 22.8766 153.888C20.5119 152.527 17.8951 151.66 15.1852 151.34C13.3308 151.128 11.4554 151.187 9.61766 151.513C11.2669 152.467 13.0438 153.18 14.8946 153.631Z" fill="url(#paint1_linear_201_306)"/>
</g>
<defs>
<linearGradient id="paint0_linear_201_306" x1="121.714" y1="154.974" x2="170.367" y2="160.795" gradientUnits="userSpaceOnUse">
<stop stop-color="#FFDE00"/>
<stop offset="1" stop-color="#FD5900"/>
</linearGradient>
<linearGradient id="paint1_linear_201_306" x1="56.7476" y1="158.498" x2="8.09459" y2="164.319" gradientUnits="userSpaceOnUse">
<stop stop-color="#FFDE00"/>
<stop offset="1" stop-color="#FD5900"/>
</linearGradient>
<clipPath id="clip0_201_306">
<rect width="56" height="56" fill="white" transform="translate(121.565 126.756) rotate(6.82234)"/>
</clipPath>
<clipPath id="clip1_201_306">
<rect width="56" height="56" fill="white" transform="matrix(-0.992919 0.118791 0.118791 0.992919 56.8965 130.281)"/>
</clipPath>
</defs>
</svg>
