<svg width="185" height="193" viewBox="0 0 185 193" fill="none" xmlns="http://www.w3.org/2000/svg">
<rect x="95.0059" y="1.4322" width="126.169" height="133.283" rx="7.5" transform="rotate(45 95.0059 1.4322)" fill="#FEF0D3" stroke="#D18D05"/>
<path d="M60.147 126.538H124.834C125.611 126.538 126.241 125.915 126.241 125.147V61.1782C126.241 60.4106 125.611 59.7876 124.834 59.7876H60.147C59.3707 59.7876 58.7407 60.4106 58.7407 61.1782V125.147C58.7407 125.915 59.3707 126.538 60.147 126.538Z" fill="#00A0C8"/>
<path d="M84.0532 126.538H103.741C104.517 126.538 105.147 125.915 105.147 125.147V61.1782C105.147 60.4106 104.517 59.7876 103.741 59.7876H84.0532C83.277 59.7876 82.647 60.4106 82.647 61.1782V125.147C82.647 125.915 83.277 126.538 84.0532 126.538Z" fill="#0082AA"/>
<path d="M105.147 126.538H124.834C125.611 126.538 126.241 125.915 126.241 125.147V70.9126H109.366C106.259 70.9126 103.741 73.4032 103.741 76.4751V125.147C103.741 125.915 104.371 126.538 105.147 126.538Z" fill="#FAB400"/>
<path d="M124.834 125.147V70.9126H126.241V125.147C126.241 125.915 125.611 126.538 124.834 126.538H123.428C124.204 126.538 124.834 125.915 124.834 125.147Z" fill="#DC9600"/>
<path d="M126.241 81.8624C125.791 81.9764 125.32 82.0376 124.834 82.0376H113.577C112.433 82.0376 111.747 80.7415 112.438 79.8404C113.158 78.9073 113.584 77.7406 113.584 76.4751C113.584 73.6368 111.439 71.2978 108.663 70.9557C108.893 70.9279 109.128 70.9126 109.366 70.9126H124.834C125.32 70.9126 125.791 70.9738 126.241 71.0878V81.8624Z" fill="#DC9600"/>
<path d="M82.647 126.538H102.334C103.111 126.538 103.741 125.915 103.741 125.147V61.1782C103.741 60.4106 103.111 59.7876 102.334 59.7876H82.647C81.8707 59.7876 81.2407 60.4106 81.2407 61.1782V125.147C81.2407 125.915 81.8707 126.538 82.647 126.538Z" fill="#FAB400"/>
<path d="M60.147 126.538H79.8345C80.6107 126.538 81.2407 125.915 81.2407 125.147V61.1782C81.2407 60.4106 80.6107 59.7876 79.8345 59.7876H60.147C59.3707 59.7876 58.7407 60.4106 58.7407 61.1782V125.147C58.7407 125.915 59.3707 126.538 60.147 126.538Z" fill="#FAB400"/>
<path d="M79.8345 59.7876H78.4282C79.2045 59.7876 79.8345 60.4106 79.8345 61.1782V125.147C79.8345 125.915 79.2045 126.538 78.4282 126.538H79.8345C80.6107 126.538 81.2407 125.915 81.2407 125.147V61.1782C81.2407 60.4106 80.6107 59.7876 79.8345 59.7876Z" fill="#DC9600"/>
<path d="M107.547 111.072C108.343 110.285 109.404 109.85 110.53 109.85H111.014C111.499 109.85 111.971 109.931 112.417 110.086C112.26 109.646 112.178 109.178 112.178 108.699V108.22C112.178 107.106 112.617 106.058 113.414 105.271L113.996 104.695C114.546 104.151 115.435 104.151 115.985 104.695L116.567 105.271C117.363 106.058 117.803 107.106 117.803 108.22V108.699C117.803 109.178 117.722 109.646 117.564 110.086C118.008 109.932 118.482 109.85 118.967 109.85H119.451C120.578 109.85 121.638 110.285 122.434 111.072L123.016 111.648C123.566 112.192 123.566 113.071 123.016 113.614L122.434 114.19C121.638 114.979 120.578 115.412 119.451 115.412H118.967C118.482 115.412 118.01 115.332 117.564 115.176C117.72 115.617 117.803 116.084 117.803 116.564V117.042C117.803 118.156 117.363 119.205 116.567 119.992L115.985 120.568C115.711 120.839 115.351 120.975 114.991 120.975C114.631 120.975 114.271 120.839 113.996 120.568L113.414 119.992C112.617 119.205 112.178 118.156 112.178 117.042V116.564C112.178 116.084 112.26 115.617 112.417 115.176C111.971 115.332 111.499 115.412 111.014 115.412H110.53C109.404 115.412 108.343 114.977 107.547 114.19L106.965 113.614C106.415 113.071 106.415 112.192 106.965 111.648L107.547 111.072Z" fill="#DC9600"/>
<path d="M99.9339 75.2526C99.1379 76.0411 98.0776 76.475 96.9512 76.475H96.4675C95.9823 76.475 95.5098 76.3943 95.064 76.2386C95.2201 76.6794 95.3031 77.1466 95.3031 77.6264V78.1048C95.3031 79.2187 94.8629 80.2672 94.067 81.0543L93.4848 81.63C93.2106 81.9012 92.8506 82.0375 92.4906 82.0375C92.1306 82.0375 91.7706 81.9012 91.4964 81.63L90.9142 81.0543C90.1168 80.2672 89.6781 79.2187 89.6781 78.1048V77.6264C89.6781 77.1466 89.7596 76.6794 89.9171 76.2386C89.4714 76.3943 88.9989 76.475 88.5137 76.475H88.03C86.9036 76.475 85.8432 76.0397 85.0473 75.2526L84.4651 74.6769C83.9153 74.1331 83.9153 73.2543 84.4651 72.7105L85.0473 72.1348C85.8432 71.3477 86.9036 70.9125 88.03 70.9125H88.5137C88.9989 70.9125 89.4714 70.9931 89.9171 71.1489C89.7596 70.708 89.6781 70.2408 89.6781 69.761V69.2826C89.6781 68.1688 90.1168 67.1202 90.9142 66.3331L91.4964 65.7574C92.0462 65.2137 92.935 65.2137 93.4848 65.7574L94.067 66.3331C94.8629 67.1202 95.3031 68.1688 95.3031 69.2826V69.761C95.3031 70.2408 95.2215 70.708 95.064 71.1489C95.5084 70.9945 95.9823 70.9125 96.4675 70.9125H96.9512C98.0776 70.9125 99.1379 71.3477 99.9339 72.1348L100.516 72.7105C101.066 73.2543 101.066 74.1331 100.516 74.6769L99.9339 75.2526Z" fill="#DC9600"/>
<path d="M85.0473 111.072C85.8432 110.285 86.9036 109.85 88.03 109.85H88.5137C88.9989 109.85 89.4714 109.931 89.9171 110.086C89.7596 109.646 89.6781 109.178 89.6781 108.699V108.22C89.6781 107.106 90.1168 106.058 90.9142 105.271L91.4964 104.695C92.0462 104.151 92.935 104.151 93.4848 104.695L94.067 105.271C94.8629 106.058 95.3031 107.106 95.3031 108.22V108.699C95.3031 109.178 95.2215 109.646 95.064 110.086C95.5084 109.932 95.9823 109.85 96.4675 109.85H96.9512C98.0776 109.85 99.1379 110.285 99.9339 111.072L100.516 111.648C101.066 112.192 101.066 113.071 100.516 113.614L99.9339 114.19C99.1379 114.979 98.0776 115.412 96.9512 115.412H96.4675C95.9823 115.412 95.5098 115.332 95.064 115.176C95.2201 115.617 95.3031 116.084 95.3031 116.564V117.042C95.3031 118.156 94.8629 119.205 94.067 119.992L93.4848 120.568C93.2106 120.839 92.8506 120.975 92.4906 120.975C92.1306 120.975 91.7706 120.839 91.4964 120.568L90.9142 119.992C90.1168 119.205 89.6781 118.156 89.6781 117.042V116.564C89.6781 116.084 89.7596 115.617 89.9171 115.176C89.4714 115.332 88.9989 115.412 88.5137 115.412H88.03C86.9036 115.412 85.8432 114.977 85.0473 114.19L84.4651 113.614C83.9153 113.071 83.9153 112.192 84.4651 111.648L85.0473 111.072Z" fill="#DC9600"/>
<path d="M77.4339 75.2526C76.6379 76.0411 75.5776 76.475 74.4512 76.475H73.9675C73.4823 76.475 73.0098 76.3943 72.564 76.2386C72.7201 76.6794 72.8031 77.1466 72.8031 77.6264V78.1048C72.8031 79.2187 72.3629 80.2672 71.567 81.0543L70.9848 81.63C70.7106 81.9012 70.3506 82.0375 69.9906 82.0375C69.6306 82.0375 69.2706 81.9012 68.9964 81.63L68.4142 81.0543C67.6168 80.2672 67.1781 79.2187 67.1781 78.1048V77.6264C67.1781 77.1466 67.2596 76.6794 67.4171 76.2386C66.9714 76.3943 66.4989 76.475 66.0137 76.475H65.53C64.4036 76.475 63.3432 76.0397 62.5473 75.2526L61.9651 74.6769C61.4153 74.1331 61.4153 73.2543 61.9651 72.7105L62.5473 72.1348C63.3432 71.3477 64.4036 70.9125 65.53 70.9125H66.0137C66.4989 70.9125 66.9714 70.9931 67.4171 71.1489C67.2596 70.708 67.1781 70.2408 67.1781 69.761V69.2826C67.1781 68.1688 67.6168 67.1202 68.4142 66.3331L68.9964 65.7574C69.5462 65.2137 70.435 65.2137 70.9848 65.7574L71.567 66.3331C72.3629 67.1202 72.8031 68.1688 72.8031 69.2826V69.761C72.8031 70.2408 72.7215 70.708 72.564 71.1489C73.0084 70.9945 73.4823 70.9125 73.9675 70.9125H74.4512C75.5776 70.9125 76.6379 71.3477 77.4339 72.1348L78.0161 72.7105C78.5659 73.2543 78.5659 74.1331 78.0161 74.6769L77.4339 75.2526Z" fill="#DC9600"/>
<path d="M62.5473 111.072C63.3432 110.285 64.4036 109.85 65.53 109.85H66.0137C66.4989 109.85 66.9714 109.931 67.4171 110.086C67.2596 109.646 67.1781 109.178 67.1781 108.699V108.22C67.1781 107.106 67.6168 106.058 68.4142 105.271L68.9964 104.695C69.5462 104.151 70.435 104.151 70.9848 104.695L71.567 105.271C72.3629 106.058 72.8031 107.106 72.8031 108.22V108.699C72.8031 109.178 72.7215 109.646 72.564 110.086C73.0084 109.932 73.4823 109.85 73.9675 109.85H74.4512C75.5776 109.85 76.6379 110.285 77.4339 111.072L78.0161 111.648C78.5659 112.192 78.5659 113.071 78.0161 113.614L77.4339 114.19C76.6379 114.979 75.5776 115.412 74.4512 115.412H73.9675C73.4823 115.412 73.0098 115.332 72.564 115.176C72.7201 115.617 72.8031 116.084 72.8031 116.564V117.042C72.8031 118.156 72.3629 119.205 71.567 119.992L70.9848 120.568C70.7106 120.839 70.3506 120.975 69.9906 120.975C69.6306 120.975 69.2706 120.839 68.9964 120.568L68.4142 119.992C67.6168 119.205 67.1781 118.156 67.1781 117.042V116.564C67.1781 116.084 67.2596 115.617 67.4171 115.176C66.9714 115.332 66.4989 115.412 66.0137 115.412H65.53C64.4036 115.412 63.3432 114.977 62.5473 114.19L61.9651 113.614C61.4153 113.071 61.4153 112.192 61.9651 111.648L62.5473 111.072Z" fill="#DC9600"/>
<path d="M125.246 101.099L124.664 100.523C123.867 99.7361 123.428 98.6876 123.428 97.5737V97.0953C123.428 96.6155 123.51 96.1483 123.667 95.7074C123.221 95.8632 122.749 95.9438 122.264 95.9438H121.78C120.654 95.9438 119.593 95.5086 118.797 94.7215L118.215 94.1458C117.665 93.602 117.665 92.7232 118.215 92.1794L118.797 91.6037C119.593 90.8166 120.654 90.3813 121.78 90.3813H122.264C122.749 90.3813 123.221 90.462 123.667 90.6178C123.51 90.1769 123.428 89.7097 123.428 89.2299V88.7515C123.428 87.6376 123.867 86.5891 124.664 85.802L125.246 85.2263C125.521 84.9551 125.881 84.8188 126.241 84.8188V101.506C125.881 101.506 125.521 101.37 125.246 101.099Z" fill="#DC9600"/>
<path d="M124.834 100.691V85.6338L125.247 85.2263C125.521 84.9551 125.881 84.8188 126.241 84.8188V101.506C125.881 101.506 125.521 101.37 125.247 101.099L124.834 100.691Z" fill="#BE7800"/>
<path d="M100.928 97.0951C100.928 96.6154 101.01 96.1481 101.167 95.7073C100.721 95.8631 100.249 95.9437 99.7637 95.9437H99.28C98.1536 95.9437 97.0932 95.5084 96.2973 94.7213L95.7151 94.1456C95.1653 93.6019 95.1653 92.723 95.7151 92.1793L96.2973 91.6036C97.0932 90.8165 98.1536 90.3812 99.28 90.3812H99.7637C100.249 90.3812 100.721 90.4619 101.167 90.6176C101.01 90.1768 100.928 89.7095 100.928 89.2298V88.7514C100.928 87.6375 101.367 86.589 102.164 85.8019L102.746 85.2262C103.296 84.6824 104.185 84.6824 104.735 85.2262L105.317 85.8019C106.113 86.589 106.553 87.6375 106.553 88.7514V89.2298C106.553 89.7095 106.472 90.1768 106.314 90.6176C106.758 90.4633 107.232 90.3812 107.717 90.3812H108.201C109.328 90.3812 110.388 90.8165 111.184 91.6036L111.766 92.1793C112.316 92.723 112.316 93.6019 111.766 94.1456L111.184 94.7213C110.388 95.5098 109.328 95.9437 108.201 95.9437H107.717C107.232 95.9437 106.76 95.8631 106.314 95.7073C106.47 96.1481 106.553 96.6154 106.553 97.0951V97.5735C106.553 98.6874 106.113 99.7359 105.317 100.523L104.735 101.099C104.461 101.37 104.101 101.506 103.741 101.506C103.381 101.506 103.021 101.37 102.746 101.099L102.164 100.523C101.367 99.7359 100.928 98.6874 100.928 97.5735V97.0951Z" fill="#DC9600"/>
<path d="M78.4281 97.0951C78.4281 96.6154 78.5096 96.1481 78.6671 95.7073C78.2214 95.8631 77.7489 95.9437 77.2637 95.9437H76.78C75.6536 95.9437 74.5932 95.5084 73.7973 94.7213L73.2151 94.1456C72.6653 93.6019 72.6653 92.723 73.2151 92.1793L73.7973 91.6036C74.5932 90.8165 75.6536 90.3812 76.78 90.3812H77.2637C77.7489 90.3812 78.2214 90.4619 78.6671 90.6176C78.5096 90.1768 78.4281 89.7095 78.4281 89.2298V88.7514C78.4281 87.6375 78.8668 86.589 79.6642 85.8019L80.2464 85.2262C80.7962 84.6824 81.685 84.6824 82.2348 85.2262L82.817 85.8019C83.6129 86.589 84.0531 87.6375 84.0531 88.7514V89.2298C84.0531 89.7095 83.9715 90.1768 83.814 90.6176C84.2584 90.4633 84.7323 90.3812 85.2175 90.3812H85.7012C86.8276 90.3812 87.8879 90.8165 88.6839 91.6036L89.2661 92.1793C89.8159 92.723 89.8159 93.6019 89.2661 94.1456L88.6839 94.7213C87.8879 95.5098 86.8276 95.9437 85.7012 95.9437H85.2175C84.7323 95.9437 84.2598 95.8631 83.814 95.7073C83.9701 96.1481 84.0531 96.6154 84.0531 97.0951V97.5735C84.0531 98.6874 83.6129 99.7359 82.817 100.523L82.2348 101.099C81.9606 101.37 81.6006 101.506 81.2406 101.506C80.8806 101.506 80.5206 101.37 80.2464 101.099L79.6642 100.523C78.8668 99.7359 78.4281 98.6874 78.4281 97.5735V97.0951Z" fill="#DC9600"/>
<path d="M80.2465 85.2263L79.8345 85.6338V100.691L80.2465 101.099C80.5207 101.37 80.8807 101.506 81.2407 101.506V84.8188C80.8807 84.8188 80.5207 84.9551 80.2465 85.2263Z" fill="#BE7800"/>
<path d="M102.334 59.7876H100.928C101.704 59.7876 102.334 60.4106 102.334 61.1782V125.147C102.334 125.915 101.704 126.538 100.928 126.538H102.334C103.111 126.538 103.741 125.915 103.741 125.147V61.1782C103.741 60.4106 103.111 59.7876 102.334 59.7876Z" fill="#DC9600"/>
<path d="M102.747 85.2263L102.334 85.6338V100.691L102.747 101.099C103.021 101.37 103.381 101.506 103.741 101.506V84.8188C103.381 84.8188 103.021 84.9551 102.747 85.2263Z" fill="#BE7800"/>
<path d="M59.7349 85.2263L60.3171 85.802C61.1131 86.5891 61.5532 87.6376 61.5532 88.7515V89.2299C61.5532 89.7097 61.4717 90.1769 61.3142 90.6178C61.7585 90.4634 62.2324 90.3813 62.7176 90.3813H63.2013C64.3278 90.3813 65.3881 90.8166 66.184 91.6037L66.7662 92.1794C67.316 92.7232 67.316 93.602 66.7662 94.1458L66.184 94.7215C65.3881 95.51 64.3278 95.9438 63.2013 95.9438H62.7176C62.2324 95.9438 61.7599 95.8632 61.3142 95.7074C61.4717 96.1483 61.5532 96.6155 61.5532 97.0953V97.5737C61.5532 98.6876 61.1131 99.7361 60.3171 100.523L59.7349 101.099C59.4607 101.37 59.1007 101.506 58.7407 101.506V84.8188C59.1007 84.8188 59.4607 84.9551 59.7349 85.2263Z" fill="#DC9600"/>
<path d="M114.984 82.0376H126.002C128.939 82.0376 131.562 79.9113 131.84 77.0188C132.158 73.7008 129.53 70.9126 126.241 70.9126H109.366C112.474 70.9126 114.991 73.4018 114.991 76.4751C114.991 77.7406 114.565 78.9073 113.845 79.8404C113.153 80.7415 113.839 82.0376 114.984 82.0376Z" fill="#F0F0F0"/>
<g clip-path="url(#clip0_201_263)">
<path d="M171.274 147.654C171.321 147.541 171.344 147.419 171.341 147.297C171.338 147.174 171.31 147.054 171.258 146.943C171.207 146.832 171.132 146.733 171.04 146.652C170.948 146.571 170.84 146.511 170.723 146.474C165.959 145.132 160.877 145.478 156.338 147.455C158.474 146.148 160.265 144.349 161.562 142.207C162.682 140.357 163.39 138.288 163.638 136.141C163.643 135.997 163.612 135.855 163.547 135.727C163.483 135.599 163.387 135.488 163.27 135.407C163.136 135.32 162.982 135.27 162.824 135.259C162.665 135.249 162.506 135.28 162.362 135.348C160.213 136.488 158.364 138.119 156.963 140.108C155.561 142.097 154.649 144.388 154.298 146.795C154.135 147.025 153.958 147.245 153.793 147.473C154.073 146.296 154.261 145.098 154.356 143.892C154.534 141.729 154.374 139.551 153.88 137.437C153.821 137.214 153.678 137.023 153.481 136.903C153.284 136.783 153.048 136.745 152.823 136.795C152.711 136.823 152.605 136.872 152.512 136.941C152.419 137.009 152.34 137.095 152.281 137.194C150.895 139.406 149.988 141.882 149.619 144.465C149.249 147.048 149.424 149.68 150.133 152.191C148.656 153.985 147.134 155.743 145.535 157.423C147.84 152.773 149.152 147.695 149.389 142.511C149.431 142.301 149.396 142.083 149.29 141.897C149.183 141.711 149.013 141.571 148.81 141.501C148.608 141.431 148.387 141.438 148.188 141.519C147.99 141.6 147.828 141.751 147.732 141.942C145.881 144.547 144.344 147.36 143.153 150.325C141.562 154.245 140.568 158.382 140.204 162.597C139.215 163.487 138.21 164.358 137.187 165.209C139.894 159.106 141.452 152.555 141.781 145.886C141.774 145.687 141.709 145.495 141.594 145.332C141.511 145.226 141.404 145.141 141.283 145.082C141.162 145.023 141.029 144.993 140.894 144.994C140.759 144.994 140.626 145.026 140.505 145.086C140.384 145.146 140.279 145.233 140.197 145.34C135.481 151.381 133.004 161.675 133.643 168.004C132.191 169.097 130.706 170.148 129.19 171.157C130.391 168.942 131.372 166.614 132.118 164.206C133.571 159.502 134.122 154.566 133.744 149.656C133.716 149.429 133.603 149.221 133.429 149.072C133.254 148.924 133.03 148.846 132.801 148.855C132.542 148.897 132.307 149.035 132.144 149.241C129.426 153.347 127.509 157.929 126.492 162.747C125.749 166.233 125.499 169.805 125.748 173.361C123.497 174.733 121.191 176.026 118.823 177.219C118.616 177.324 118.459 177.507 118.386 177.727C118.314 177.947 118.332 178.188 118.436 178.395C118.541 178.602 118.723 178.759 118.944 178.832C119.164 178.905 119.404 178.887 119.612 178.782C122.031 177.562 124.387 176.24 126.687 174.837C132.964 177.899 144.078 179.144 151.556 176.959C151.71 176.917 151.85 176.834 151.96 176.719C152.07 176.604 152.147 176.461 152.181 176.305C152.216 176.15 152.207 175.988 152.156 175.837C152.105 175.686 152.014 175.551 151.892 175.449C148.477 173.813 144.821 172.736 141.064 172.259C137.639 171.796 134.168 171.783 130.739 172.222C132.021 171.352 133.283 170.454 134.524 169.528C138.84 171.114 143.415 171.876 148.012 171.774C151.634 171.711 155.22 171.04 158.62 169.788C158.75 169.699 158.853 169.576 158.919 169.433C158.985 169.29 159.011 169.132 158.994 168.975C158.977 168.818 158.918 168.669 158.823 168.544C158.728 168.418 158.601 168.32 158.455 168.261C151.98 165.804 144.935 165.256 138.157 166.682C139.251 165.78 140.32 164.848 141.374 163.899C143.138 164.439 144.946 164.821 146.778 165.04C152.483 165.717 158.263 164.806 163.484 162.409C163.691 162.304 163.849 162.124 163.927 161.905C164.004 161.686 163.993 161.446 163.898 161.234C163.784 161.03 163.602 160.871 163.385 160.784C157.372 158.868 150.923 158.804 144.873 160.598C145.671 159.805 146.456 158.998 147.227 158.177C148.114 158.379 149.01 158.536 149.913 158.647C156.088 159.39 162.331 157.982 167.589 154.659C167.73 154.565 167.842 154.432 167.91 154.276C167.978 154.12 168 153.948 167.972 153.78C167.944 153.613 167.869 153.456 167.755 153.33C167.641 153.204 167.492 153.114 167.328 153.07C161.745 151.738 155.882 152.208 150.583 154.415C151.411 153.439 152.226 152.45 153.015 151.442C153.936 151.679 154.872 151.855 155.816 151.969C160.595 152.615 167.404 151.224 171.274 147.654ZM158.869 140.482C161.734 137.22 162.116 137.473 160.061 141.306C159.122 142.861 157.884 144.214 156.418 145.287C156.908 143.539 157.742 141.905 158.869 140.482ZM151.47 144.006C151.72 142.788 152.095 141.598 152.59 140.457C152.688 141.555 152.695 142.659 152.611 143.758C152.451 145.759 152.022 147.729 151.336 149.616C151.051 147.753 151.096 145.854 151.47 144.006ZM147.315 145.832C146.609 150.694 144.92 155.362 142.352 159.551C143.18 154.72 144.86 150.074 147.315 145.832ZM137.063 155.318C137.758 153.236 138.656 151.228 139.745 149.322C139.103 154.744 137.622 160.032 135.357 165C135.455 161.707 136.03 158.446 137.063 155.318ZM128.205 163.11C128.979 159.452 130.296 155.931 132.11 152.663C132.108 156.401 131.546 160.118 130.445 163.691C129.685 166.159 128.667 168.541 127.407 170.797C127.402 168.213 127.669 165.637 128.205 163.11ZM148.334 175.837C142.069 176.826 135.657 176.244 129.673 174.142C135.937 173.15 142.35 173.733 148.334 175.837ZM147.98 167.711C150.443 167.878 152.88 168.317 155.246 169.018C152.864 169.621 150.422 169.959 147.965 170.024C144.399 170.119 140.839 169.655 137.416 168.649C140.867 167.786 144.431 167.469 147.98 167.711ZM153.579 161.026C155.879 161.007 158.174 161.259 160.414 161.779C158.263 162.559 156.027 163.081 153.753 163.333C150.454 163.697 147.118 163.504 143.883 162.761C146.995 161.643 150.273 161.056 153.579 161.026ZM158.277 154.207C160.391 153.977 162.525 154.018 164.629 154.329C162.73 155.302 160.714 156.029 158.632 156.492C155.637 157.153 152.548 157.266 149.513 156.826C152.252 155.431 155.221 154.544 158.277 154.207ZM162.978 149.822C160.363 150.454 157.646 150.542 154.996 150.079C157.361 148.718 159.977 147.851 162.687 147.531C164.542 147.319 166.417 147.377 168.255 147.704C166.606 148.658 164.829 149.371 162.978 149.822Z" fill="url(#paint0_linear_201_263)"/>
</g>
<g clip-path="url(#clip1_201_263)">
<path d="M6.00924 151.178C5.96234 151.065 5.93949 150.943 5.94216 150.821C5.94483 150.699 5.97294 150.578 6.02472 150.467C6.0765 150.356 6.1508 150.257 6.24291 150.176C6.33502 150.096 6.44292 150.035 6.55974 149.998C11.3244 148.656 16.4066 149.003 20.9449 150.979C18.8093 149.673 17.018 147.873 15.7212 145.731C14.6015 143.882 13.8934 141.813 13.645 139.665C13.6403 139.522 13.6716 139.379 13.736 139.251C13.8003 139.123 13.8958 139.013 14.0136 138.931C14.1473 138.845 14.3008 138.794 14.4596 138.784C14.6184 138.773 14.7772 138.804 14.9209 138.872C17.0697 140.013 18.9197 141.644 20.3207 143.632C21.7217 145.621 22.6344 147.912 22.9847 150.32C23.1482 150.549 23.3249 150.769 23.4904 150.998C23.2106 149.82 23.0223 148.623 22.927 147.416C22.7489 145.253 22.9095 143.075 23.4029 140.962C23.4618 140.739 23.6048 140.547 23.8019 140.428C23.9991 140.308 24.2349 140.269 24.4599 140.32C24.5722 140.347 24.6779 140.397 24.7711 140.465C24.8642 140.534 24.9429 140.62 25.0027 140.719C26.388 142.93 27.2948 145.407 27.6647 147.99C28.0345 150.573 27.8592 153.205 27.1499 155.716C28.6276 157.51 30.1489 159.267 31.748 160.947C29.4436 156.298 28.1313 151.22 27.8942 146.036C27.8518 145.826 27.8871 145.608 27.9936 145.422C28.1001 145.236 28.2705 145.095 28.4731 145.025C28.6757 144.956 28.8967 144.962 29.0949 145.043C29.2931 145.125 29.4551 145.275 29.5507 145.467C31.4021 148.071 32.9393 150.885 34.1304 153.85C35.7214 157.77 36.7154 161.906 37.0792 166.121C38.068 167.012 39.0737 167.882 40.0961 168.734C37.389 162.63 35.8317 156.08 35.5025 149.411C35.5088 149.212 35.5738 149.019 35.6892 148.857C35.7724 148.751 35.8787 148.665 36.0001 148.606C36.1215 148.548 36.2547 148.517 36.3895 148.518C36.5243 148.519 36.6572 148.55 36.778 148.61C36.8987 148.67 37.0041 148.757 37.0861 148.864C41.8018 154.905 44.2797 165.2 43.6402 171.529C45.0926 172.622 46.5768 173.673 48.0929 174.682C46.8922 172.466 45.9117 170.138 45.1653 167.731C43.7126 163.026 43.1608 158.09 43.539 153.181C43.5674 152.953 43.6801 152.745 43.8547 152.597C44.0292 152.448 44.2531 152.371 44.4821 152.379C44.7416 152.421 44.976 152.559 45.1389 152.766C47.8571 156.871 49.7747 161.454 50.7907 166.272C51.5339 169.757 51.7845 173.33 51.5354 176.885C53.7866 178.257 56.0923 179.55 58.4599 180.744C58.6671 180.848 58.8243 181.031 58.897 181.251C58.9696 181.472 58.9516 181.712 58.8471 181.919C58.7426 182.127 58.56 182.284 58.3396 182.356C58.1191 182.429 57.8789 182.411 57.6716 182.307C55.2523 181.087 52.8964 179.765 50.5963 178.362C44.3196 181.424 33.2057 182.668 25.7271 180.483C25.5732 180.442 25.4335 180.359 25.3233 180.244C25.2131 180.128 25.1366 179.985 25.1019 179.83C25.0673 179.674 25.076 179.512 25.127 179.361C25.178 179.21 25.2694 179.076 25.3913 178.973C28.8064 177.337 32.4621 176.26 36.2187 175.784C39.6442 175.32 43.1157 175.308 46.5444 175.746C45.2618 174.876 43.9999 173.978 42.759 173.053C38.4431 174.639 33.8679 175.4 29.2709 175.298C25.6487 175.236 22.0628 174.564 18.6634 173.312C18.5334 173.223 18.43 173.101 18.3641 172.958C18.2982 172.814 18.2723 172.656 18.2892 172.5C18.3061 172.343 18.3651 172.194 18.4599 172.068C18.5548 171.942 18.6819 171.844 18.8279 171.785C25.3037 169.329 32.3481 168.781 39.1258 170.207C38.032 169.304 36.9634 168.372 35.9095 167.423C34.1456 167.963 32.337 168.345 30.5052 168.564C24.8006 169.241 19.0199 168.331 13.7996 165.933C13.5925 165.828 13.4337 165.648 13.3565 165.429C13.2794 165.21 13.2897 164.97 13.3855 164.759C13.4997 164.554 13.6807 164.395 13.8983 164.308C19.9108 162.393 26.3601 162.328 32.4099 164.122C31.6121 163.33 30.8276 162.522 30.0564 161.701C29.1694 161.903 28.2728 162.06 27.3699 162.171C21.1949 162.915 14.9523 161.507 9.6947 158.184C9.55292 158.09 9.4413 157.957 9.37327 157.801C9.30523 157.645 9.28368 157.473 9.31119 157.305C9.33871 157.137 9.41412 156.981 9.52837 156.855C9.64261 156.729 9.79083 156.638 9.95519 156.595C15.5387 155.262 21.4008 155.733 26.7 157.94C25.872 156.963 25.0577 155.975 24.2679 154.967C23.3469 155.204 22.4111 155.38 21.4669 155.493C16.6878 156.139 9.87929 154.749 6.00924 151.178ZM18.4146 144.006C15.5496 140.744 15.1672 140.997 17.2222 144.83C18.1612 146.386 19.3996 147.739 20.8657 148.811C20.3747 147.063 19.5416 145.43 18.4146 144.006ZM25.8129 147.531C25.5634 146.312 25.188 145.122 24.6929 143.981C24.5954 145.079 24.5884 146.183 24.672 147.282C24.8324 149.283 25.2613 151.254 25.9472 153.141C26.2325 151.277 26.1871 149.378 25.8129 147.531ZM29.9682 149.356C30.6746 154.219 32.3634 158.887 34.9316 163.076C34.1037 158.244 32.4231 153.599 29.9682 149.356ZM40.22 158.842C39.5254 156.761 38.6271 154.752 37.5383 152.846C38.1805 158.268 39.661 163.557 41.9266 168.524C41.828 165.231 41.2532 161.97 40.22 158.842ZM49.0782 166.634C48.304 162.977 46.9876 159.455 45.1728 156.187C45.1755 159.925 45.7367 163.642 46.8379 167.215C47.5981 169.684 48.6166 172.066 49.8765 174.321C49.8813 171.738 49.6137 169.161 49.0782 166.634ZM28.9497 179.361C35.2142 180.35 41.6264 179.768 47.6104 177.667C41.3459 176.675 34.933 177.257 28.9497 179.361ZM29.3034 171.235C26.8405 171.403 24.4036 171.841 22.0369 172.543C24.4194 173.146 26.8614 173.483 29.3182 173.549C32.8847 173.643 36.4441 173.179 39.8671 172.174C36.4166 171.31 32.852 170.994 29.3034 171.235ZM23.7038 164.55C21.4037 164.531 19.1094 164.784 16.8687 165.303C19.0199 166.084 21.2562 166.605 23.5306 166.858C26.8291 167.221 30.1653 167.028 33.3998 166.286C30.2882 165.167 27.0103 164.58 23.7038 164.55ZM19.0066 157.732C16.8926 157.502 14.7579 157.543 12.6543 157.854C14.5535 158.826 16.5688 159.553 18.6516 160.016C21.6461 160.677 24.7356 160.79 27.7704 160.35C25.0311 158.956 22.0619 158.069 19.0066 157.732ZM14.3053 153.346C16.9201 153.979 19.6371 154.066 22.2873 153.603C19.9225 152.242 17.3058 151.375 14.5958 151.056C12.7414 150.844 10.866 150.902 9.02831 151.228C10.6775 152.182 12.4544 152.895 14.3053 153.346Z" fill="url(#paint1_linear_201_263)"/>
</g>
<defs>
<linearGradient id="paint0_linear_201_263" x1="121.125" y1="154.689" x2="169.778" y2="160.51" gradientUnits="userSpaceOnUse">
<stop stop-color="#FFDE00"/>
<stop offset="1" stop-color="#FD5900"/>
</linearGradient>
<linearGradient id="paint1_linear_201_263" x1="56.1583" y1="158.214" x2="7.50523" y2="164.034" gradientUnits="userSpaceOnUse">
<stop stop-color="#FFDE00"/>
<stop offset="1" stop-color="#FD5900"/>
</linearGradient>
<clipPath id="clip0_201_263">
<rect width="56" height="56" fill="white" transform="translate(120.976 126.472) rotate(6.82234)"/>
</clipPath>
<clipPath id="clip1_201_263">
<rect width="56" height="56" fill="white" transform="matrix(-0.992919 0.118791 0.118791 0.992919 56.3071 129.996)"/>
</clipPath>
</defs>
</svg>
