<svg width="84" height="84" viewBox="0 0 84 84" fill="none" xmlns="http://www.w3.org/2000/svg">
<g clip-path="url(#clip0_69_8677)">
<path d="M44.1567 11.7527H83.2156V28.8409H44.1567V11.7527Z" fill="#D18D05"/>
<path d="M44.1567 72.7822H83.2156V33.7234H44.1567V72.7822ZM71.0097 41.0469H75.892V45.9293H71.0097V41.0469ZM71.0097 50.8116H75.892V55.694H71.0097V50.8116ZM71.0097 60.5763H75.892V65.4587H71.0097V60.5763ZM61.245 41.0469H66.1273V45.9293H61.245V41.0469ZM61.245 50.8116H66.1273V55.694H61.245V50.8116ZM61.245 60.5763H66.1273V65.4587H61.245V60.5763ZM51.4803 41.0469H56.3626V45.9293H51.4803V41.0469ZM51.4803 50.8116H56.3626V55.694H51.4803V50.8116ZM51.4803 60.5763H56.3626V65.4587H51.4803V60.5763Z" fill="#D18D05"/>
<path d="M12.4212 19.0762V16.635H0.215332V28.8409H2.65651C8.04077 28.8409 12.4212 24.4604 12.4212 19.0762Z" fill="#D18D05"/>
<path d="M2.65651 48.3704H0.215332V60.5762H12.4212V58.1351C12.4212 52.7508 8.04077 48.3704 2.65651 48.3704Z" fill="#D18D05"/>
<path d="M34.3916 38.6056C34.3916 41.788 36.4326 44.5015 39.274 45.5092V31.7019C36.4326 32.7096 34.3916 35.4231 34.3916 38.6056Z" fill="#D18D05"/>
<path d="M17.3036 19.0762C17.3036 27.1526 10.7329 33.7232 2.65651 33.7232H0.215332V43.488H2.65651C10.7329 43.488 17.3036 50.0586 17.3036 58.135V60.5762H39.2742V50.5659C26.334 47.7374 26.3429 29.4689 39.2742 26.6453V16.635H17.3036V19.0762Z" fill="#D18D05"/>
</g>
<defs>
<clipPath id="clip0_69_8677">
<rect width="83" height="83" fill="white" transform="translate(0.215332 0.767334)"/>
</clipPath>
</defs>
</svg>
