<svg width="197" height="78" viewBox="0 0 197 78" fill="none" xmlns="http://www.w3.org/2000/svg">
<path d="M21.6864 57.0445H24.0769H43.199H45.5894H64.7116H67.102H71.8492C71.2058 56.6323 70.3574 56.0506 69.5055 55.2743H67.6842L68.1554 53.8411C67.5959 53.1413 67.0884 52.3388 66.7034 51.4205L65.3388 55.2743H46.5751L60.1208 30.9329H73.959L73.7125 31.6296C74.5854 30.5295 75.5116 29.4756 76.5094 28.438L80.3645 16.7149H91.3254L90.9718 19.5118C91.1571 19.5035 91.3429 19.4991 91.5286 19.4991C91.825 19.4991 92.1187 19.5131 92.4102 19.5345L92.6956 16.7149L92.7551 16.1287L93.6393 7.39138H98.3057C98.453 7.25326 98.6038 7.11907 98.7576 6.98882H93.6804L94.3356 0.512933H102.016L102.455 4.85234C102.793 4.73039 103.136 4.62068 103.484 4.52933L102.976 0.512933H110.659L112.344 5.63647C112.834 5.90834 113.307 6.21561 113.759 6.55698L111.618 0.512059H119.301L122.904 6.98794H114.301C114.446 7.11077 114.588 7.23708 114.727 7.3669C116.883 9.37925 118.128 12.0048 118.452 14.7266C120.354 16.5379 121.927 18.4978 122.893 20.2736C124.66 23.5247 123.965 25.3487 123.07 26.3068C122.606 26.805 121.757 27.399 120.356 27.399C119.92 27.399 119.46 27.3322 118.987 27.2212C118.047 27.6954 116.294 26.9086 114.351 25.2731C112.184 27.1285 109.398 28.174 106.523 28.174C105.943 28.174 105.368 28.132 104.802 28.0507L104.942 29.4411L117.076 44.3353L148.906 34.7155L154.849 54.38L146.033 57.0445H150.76H153.15H172.272H174.663H196.175L170.089 31.8914L168.129 30.001L144.68 7.3905L144.263 6.98794L137.246 0.223145H128.669H127.716H120.093H119.14H111.516H110.563H102.94H101.987H94.3631H93.4103H85.7866H84.8338H77.2101H76.2572H68.6336H67.6807H59.1024L52.0867 6.98794L51.6693 7.3905L28.2205 30.001L26.2601 31.8914L0.174316 57.0445H21.6864ZM191.993 55.2743H173.229L153.527 30.9329H167.365L191.993 55.2743ZM166.422 30.001H152.773L142.018 16.7144L141.543 16.1283L134.471 7.39094H143.546L166.422 30.001ZM136.586 0.512059L143.138 6.98794H134.146L128.904 0.512059H136.586ZM127.943 0.512059L133.021 6.98794L133.337 7.3905L140.188 16.1279H129.346L124.263 7.3905L124.028 6.98794L120.261 0.512059H127.943ZM58.932 30.001L57.8323 31.8914L44.2288 55.2743H25.4651L43.8 31.8914L45.2822 30.001L55.7006 16.7144H66.6614L58.932 30.001ZM79.2006 16.1279L78.993 16.714L74.2877 30.0006H60.6384L68.0321 16.714L68.3582 16.1279L73.2203 7.3905H82.2947L79.2006 16.1279ZM85.6909 0.512059H93.3731L92.554 6.98794L92.5033 7.3905L91.3984 16.1279H80.556L83.429 7.3905L83.5614 6.98794L85.6909 0.512059ZM77.0479 0.512059H84.7302L82.4368 6.98794H73.4441L77.0479 0.512059ZM68.4054 0.512059H76.0876L72.3199 6.98794L72.0857 7.3905L67.0023 16.1279H56.16L63.0113 7.3905L63.3269 6.98794L68.4054 0.512059ZM59.7629 0.512059H67.4451L62.2031 6.98794H53.2105L59.7629 0.512059ZM52.8036 7.3905H61.8779L54.8059 16.1279L54.3312 16.714L43.5762 30.001H29.9264L52.8036 7.3905ZM28.9841 30.9329H42.8222L23.1196 55.2743H4.35549L28.9841 30.9329Z" fill="#D18D05"/>
<path d="M78.3148 57.9878L77.8192 58.0214C77.6898 58.0301 77.5613 58.0341 77.4336 58.0341C77.2938 58.0341 77.1548 58.0293 77.0167 58.0218C76.8864 58.0188 76.7269 58.0061 76.566 57.9825C76.3829 57.9602 76.2019 57.9274 76.0223 57.8894L79.8333 66.2233H66.9226C63.9054 66.2233 61.459 68.6693 61.459 71.6869C61.459 74.7042 63.9054 77.1505 66.9226 77.1505H88.3399C90.1997 77.1505 91.9318 76.2042 92.9371 74.6395C93.2899 74.0905 93.5298 73.4899 93.6671 72.871L83.7216 75.8769L78.3148 57.9878Z" fill="#D18D05"/>
<path d="M69.0494 43.4769C66.3937 50.1363 70.0604 53.3524 73.457 55.4754C73.565 55.5431 73.6712 55.6087 73.7761 55.6734C74.5847 56.3832 75.6022 56.8526 76.7142 56.9881C76.8344 57.006 76.9537 57.0152 77.0722 57.0183C77.296 57.031 77.5215 57.0345 77.751 57.0187L78.0167 57.0008L77.7785 56.2127L90.8745 52.2549L90.1817 51.7553C89.1178 50.9882 88.4434 49.7985 88.3311 48.4925L88.0605 45.3647L86.3065 45.484C86.8262 44.8257 87.3625 44.1841 87.9032 43.5507L86.8022 30.8306C86.6981 29.6326 87.0666 28.466 87.8407 27.5455C88.6148 26.625 89.7005 26.0611 90.8985 25.9571C91.0319 25.9453 91.1652 25.9396 91.2976 25.9396C93.6452 25.9396 95.5688 27.7085 95.7716 30.0544L96.1803 34.7758C96.4137 34.5398 96.6392 34.2963 96.8495 34.0406L107.576 47.2074L114.814 45.0198L98.7998 25.3618C98.638 25.2259 98.4789 25.0869 98.3233 24.9418C97.8242 24.4758 97.3727 23.9723 96.9658 23.4404C94.0801 21.2449 89.0366 20.6386 84.2614 24.4081C76.9913 30.2161 73.3495 34.698 69.0494 43.4769Z" fill="#D18D05"/>
<path d="M98.2792 44.668L97.0444 44.752L97.1231 45.6594L101.72 48.976L103.816 48.3426C103.013 46.0099 100.744 44.5015 98.2792 44.668Z" fill="#D18D05"/>
<path d="M100.858 74.0292C101.622 76.3191 103.753 77.7672 106.041 77.7672C106.614 77.7672 107.196 77.6763 107.769 77.4852C110.632 76.5315 112.179 73.4374 111.225 70.5745L110.314 67.8396L99.8496 71.0024L100.858 74.0292Z" fill="#D18D05"/>
<path d="M112.738 23.7647C112.122 23.1283 111.506 22.422 110.906 21.6584C107.759 17.6503 106.267 13.5596 107.502 12.4004C106.957 13.9604 109.014 17.4698 112.466 20.6924C116.26 24.2337 120.293 26.0795 121.473 24.8155C122.654 23.5505 120.535 19.6539 116.741 16.1126C116.611 15.9911 116.48 15.8766 116.349 15.759C116.249 13.2632 115.206 10.8042 113.236 8.96493C109.265 5.25887 103.042 5.47348 99.3357 9.44354C95.6292 13.4145 95.8443 19.6373 99.8143 23.3434C103.456 26.7426 108.986 26.8344 112.738 23.7647Z" fill="#D18D05"/>
<path d="M148.03 36.3496L103.058 49.9417L104.887 51.2608L146.833 38.5836L150.98 52.3072L85.7946 72.0085L81.647 58.2848L94.0415 54.539L92.2123 53.2194L79.4131 57.0881L84.5974 74.2425L153.214 53.504L148.03 36.3496Z" fill="#D18D05"/>
<path d="M96.1613 46.2057L94.7701 30.1406C94.6035 28.2169 92.9229 26.7885 90.9849 26.9586C89.0613 27.1251 87.6364 28.8197 87.8033 30.7437L89.3323 48.4056C89.4197 49.4192 89.9446 50.3445 90.7698 50.9398L106.068 61.9762C106.687 62.4225 107.402 62.6376 108.111 62.6376C109.196 62.6376 110.266 62.134 110.95 61.1864C112.08 59.6203 111.726 57.4349 110.159 56.305L96.1613 46.2057Z" fill="#D18D05"/>
</svg>
