<svg width="116" height="92" viewBox="0 0 116 92" fill="none" xmlns="http://www.w3.org/2000/svg">
<path d="M52.0097 64.6267H17.6029L0.134277 91.0613H49.0278L52.0097 64.6267Z" fill="#D18D05"/>
<path d="M73.7399 44.417H61.3042L62.853 58.1481H79.9891C79.974 58.1481 79.9592 58.1481 79.9441 58.1481C78.9201 58.1239 78.1057 57.2869 78.1205 56.2719C78.1205 56.2644 78.1205 56.231 78.1222 56.2109C78.1304 55.8646 78.1772 49.0289 73.7399 44.417Z" fill="#D18D05"/>
<path d="M42.2047 44.417H30.9593L21.8848 58.1481H52.7398L54.2886 44.417H46.3538C46.1392 45.8097 46.0959 46.7784 46.0887 47.0209C46.0887 47.0451 46.0869 47.0931 46.0869 47.1006C46.0533 48.1006 45.2237 48.8896 44.2204 48.8896C44.2053 48.8896 44.1905 48.8896 44.1754 48.8896C43.1514 48.8654 42.3387 48.0302 42.3517 47.0134C42.3517 47.0059 42.3535 46.9616 42.3535 46.9358C42.3579 46.7989 42.3655 45.8431 42.2047 44.417Z" fill="#D18D05"/>
<path d="M85.3311 45.9617C84.9368 46.5082 84.5689 47.0877 84.2306 47.7081C82.0521 51.7214 81.8728 55.8423 81.8597 56.2999C81.8597 56.3204 81.858 56.3387 81.858 56.3592H81.8597C81.8261 57.3593 80.9965 58.1482 79.9932 58.1482H93.3851L85.3311 45.9617Z" fill="#D18D05"/>
<path d="M63.5854 64.6267L66.5694 91.0613H115.134L97.6652 64.6267H63.5854Z" fill="#D18D05"/>
<path d="M67.653 23.7555C44.5328 23.7555 44.2227 0.473389 44.2227 0.473389C44.2227 23.115 20.7363 23.7555 20.7363 23.7555C39.9557 23.7851 43.4625 38.3386 44.0901 44.417C44.2319 45.7855 44.2281 46.7284 44.2227 46.9746C44.2302 46.7284 44.2694 45.7855 44.4693 44.417C45.3493 38.3386 49.3717 23.7851 67.7073 23.7555C67.6904 23.7555 67.6719 23.7555 67.653 23.7555Z" fill="#D18D05"/>
<path d="M98.2296 38.1738C80.2321 38.1738 79.9913 20.0515 79.9913 20.0515C79.9913 37.6757 61.71 38.1738 61.71 38.1738C69.1646 38.1851 73.583 41.0055 76.2004 44.4171C80.0174 49.3937 80.0043 55.6295 79.993 56.2461C80.0115 55.6295 80.3162 49.3954 84.1967 44.4171C86.8533 41.0093 91.1673 38.1851 98.2726 38.1738C98.2578 38.1738 98.2447 38.1738 98.2296 38.1738Z" fill="#D18D05"/>
</svg>
