<svg width="295" height="297" viewBox="0 0 295 297" fill="none" xmlns="http://www.w3.org/2000/svg">
<path d="M9.70755 149.549C12.3644 175.171 23.748 204.82 47.2173 218.13C82.6769 238.244 79.1716 270.169 148.81 282.837C159.667 284.813 169.989 285.547 179.739 285.201C184.98 285.016 190.059 284.512 194.962 283.717C239.464 276.55 269.831 245.538 281.381 208.53C296.581 159.858 268.283 128.645 249.496 109.869C230.709 91.0923 217.677 31.813 149.334 18.8251C138.914 16.8496 128.24 15.932 117.547 16.3778C93.1417 17.3848 66.4052 25.7556 47.7282 42.5951C46.3257 43.8602 44.9611 45.1709 43.6291 46.5195C17.6214 72.9179 6.08332 114.618 9.70755 149.549Z" fill="#FBAA06"/>
<path opacity="0.7" d="M9.70755 149.549C12.3644 175.171 23.748 204.82 47.2173 218.13C82.6769 238.244 79.1716 270.169 148.81 282.837C159.667 284.813 169.989 285.547 179.739 285.201C184.98 285.016 190.059 284.512 194.962 283.717C239.464 276.55 269.831 245.538 281.381 208.53C296.581 159.858 268.283 128.645 249.496 109.869C230.709 91.0923 217.677 31.813 149.334 18.8251C138.914 16.8496 128.24 15.932 117.547 16.3778C93.1417 17.3848 66.4052 25.7556 47.7282 42.5951C46.3257 43.8602 44.9611 45.1709 43.6291 46.5195C17.6214 72.9179 6.08332 114.618 9.70755 149.549Z" fill="#FCFCFC"/>
<path d="M288.321 200.583H4.57959" stroke="#263238" stroke-miterlimit="10" stroke-linecap="round" stroke-linejoin="round"/>
<path d="M16.6833 102.94C16.6833 102.94 15.0292 107.489 11.5139 108.11C7.99863 108.73 1.79506 101.907 5.72416 98.3914C9.65268 94.8761 15.0292 100.459 16.6833 102.94Z" fill="#FBAA06" stroke="#263238" stroke-width="0.75" stroke-miterlimit="10" stroke-linecap="round" stroke-linejoin="round"/>
<path d="M22.0595 80.6084C22.0595 80.6084 16.8901 93.2221 18.958 99.4251C21.0258 105.629 33.8462 110.178 37.5681 102.113C41.29 94.0492 33.0186 82.6763 29.9171 80.1946C26.815 77.7135 23.0931 78.5405 22.0595 80.6084Z" fill="#FBAA06" stroke="#263238" stroke-width="0.75" stroke-miterlimit="10" stroke-linecap="round" stroke-linejoin="round"/>
<path d="M52.2495 85.984C52.2495 85.984 43.3576 94.0482 42.324 102.112C41.2898 110.177 47.2867 113.072 53.4903 112.038C59.6939 111.004 62.7954 95.289 60.9347 88.0518C59.0729 80.8146 52.2495 85.984 52.2495 85.984Z" fill="#FBAA06" stroke="#263238" stroke-width="0.75" stroke-miterlimit="10" stroke-linecap="round" stroke-linejoin="round"/>
<path d="M53.9035 130.649C53.9035 130.649 43.9781 131.063 43.5642 135.818C43.1504 140.574 47.9066 141.608 52.6627 137.472C57.4188 133.337 58.0392 130.856 53.9035 130.649Z" fill="#FBAA06" stroke="#263238" stroke-width="0.75" stroke-miterlimit="10" stroke-linecap="round" stroke-linejoin="round"/>
<path d="M43.729 136.952C43.729 136.952 51.5511 133.374 55.0741 132.752" stroke="#263238" stroke-width="0.75" stroke-miterlimit="10"/>
<path d="M56.1162 161.769C56.1162 161.769 48.8251 155.021 45.1606 158.081C41.4962 161.14 44.1158 165.242 50.4016 165.7C56.6875 166.157 58.885 164.848 56.1162 161.769Z" fill="#FBAA06" stroke="#263238" stroke-width="0.75" stroke-miterlimit="10" stroke-linecap="round" stroke-linejoin="round"/>
<path d="M44.4727 158.996C44.4727 158.996 52.5256 162.02 55.4495 164.08" stroke="#263238" stroke-width="0.75" stroke-miterlimit="10"/>
<path d="M17.6586 159.781C17.6586 159.781 27.709 150.48 32.7599 154.697C37.8115 158.915 34.2003 164.569 25.5358 165.199C16.8707 165.83 13.8414 164.025 17.6586 159.781Z" fill="#FBAA06" stroke="#263238" stroke-width="0.75" stroke-miterlimit="10" stroke-linecap="round" stroke-linejoin="round"/>
<path d="M33.7082 155.959C33.7082 155.959 22.6076 160.129 18.5767 162.969" stroke="#263238" stroke-width="0.75" stroke-miterlimit="10"/>
<path d="M29.2971 140.574C29.2971 140.574 28.2635 145.537 24.541 147.398C20.8191 149.259 14.2023 145.33 17.717 139.334C21.2323 133.337 27.4359 138.093 29.2971 140.574Z" fill="#FBAA06" stroke="#263238" stroke-width="0.75" stroke-miterlimit="10" stroke-linecap="round" stroke-linejoin="round"/>
<path d="M20.6122 125.066C20.6122 125.066 18.751 120.93 11.5138 123.618C4.2766 126.306 1.38172 130.442 5.93064 131.89C10.4796 133.337 20.6122 125.066 20.6122 125.066Z" fill="#FBAA06" stroke="#263238" stroke-width="0.75" stroke-miterlimit="10" stroke-linecap="round" stroke-linejoin="round"/>
<path d="M19.2265 124.877C19.2265 124.877 11.5595 125.706 7.41553 129.229" stroke="#263238" stroke-width="0.75" stroke-miterlimit="10"/>
<path d="M41.2896 75.4389C41.2896 75.4389 42.5304 78.3338 45.0115 77.7134C47.4925 77.093 48.1129 73.3711 52.042 74.4047C55.9711 75.4389 59.2792 79.9878 59.2792 77.92C59.2792 75.8521 54.3165 70.4756 48.7334 70.4756C43.1502 70.4756 41.4968 72.7506 41.2896 75.4389Z" fill="#FBAA06" stroke="#263238" stroke-width="0.75" stroke-miterlimit="10" stroke-linecap="round" stroke-linejoin="round"/>
<path d="M20.6123 125.065C20.6123 125.065 29.516 123.356 33.2237 133.243C33.5878 134.214 33.8944 135.228 34.1531 136.269" stroke="#263238" stroke-width="0.75" stroke-miterlimit="10"/>
<path d="M57.7715 115.487C57.7715 115.487 59.6327 111.352 66.8699 114.04C74.1071 116.728 77.002 120.864 72.4531 122.311C67.9036 123.758 57.7715 115.487 57.7715 115.487Z" fill="#FBAA06" stroke="#263238" stroke-width="0.75" stroke-miterlimit="10" stroke-linecap="round" stroke-linejoin="round"/>
<path d="M59.4248 115.76C59.4248 115.76 66.884 115.346 70.407 119.697" stroke="#263238" stroke-width="0.75" stroke-miterlimit="10"/>
<path d="M57.7717 115.488C57.7717 115.488 54.82 114.921 51.6084 116.327" stroke="#263238" stroke-width="0.75" stroke-miterlimit="10"/>
<path d="M25.3581 108.069C20.9939 103.613 16.6829 102.94 16.6829 102.94C16.6829 102.94 10.316 101.256 7.82959 103.535" stroke="#263238" stroke-width="0.75" stroke-miterlimit="10"/>
<path d="M26.2436 85.1637L25.8564 83.4351" stroke="#263238" stroke-width="0.75" stroke-miterlimit="10"/>
<path d="M36.3129 176.578C36.3129 176.578 37.24 140.968 36.3129 130.154C35.3858 119.34 31.0601 106.672 31.0601 106.672L26.6538 86.9946" stroke="#263238" stroke-width="0.75" stroke-miterlimit="10"/>
<path d="M54.6909 92.8088L55.4877 91.1021" stroke="#263238" stroke-width="0.75" stroke-miterlimit="10"/>
<path d="M38.4756 176.539C38.4756 176.539 38.7846 144.058 40.0207 134.789C41.2568 125.519 46.2006 110.997 46.2006 110.997L53.7871 94.7451" stroke="#263238" stroke-width="0.75" stroke-miterlimit="10"/>
<path d="M43.7283 136.952C43.7283 136.952 41.5657 155.573 40.3296 176.584" stroke="#263238" stroke-width="0.75" stroke-miterlimit="10"/>
<path d="M33.2234 176.539C33.2234 176.539 33.8415 146.839 32.6054 142.822C31.3693 138.806 29.2967 140.574 29.2967 140.574C29.2967 140.574 23.578 141.247 21.5054 144.563" stroke="#263238" stroke-width="0.75" stroke-miterlimit="10"/>
<path d="M34.6431 138.583C36.2598 147.641 34.7686 176.57 34.7686 176.57" stroke="#263238" stroke-width="0.75" stroke-miterlimit="10"/>
<path d="M49.8558 117.298C48.0662 118.523 46.3464 120.499 45.1594 123.665C41.4517 133.552 41.8744 176.583 41.8744 176.583" stroke="#263238" stroke-width="0.75" stroke-miterlimit="10"/>
<path d="M26.4346 109.249C28.3663 111.516 30.2388 114.583 31.6785 118.722C36.6223 132.935 38.4759 169.742 37.5494 176.539" stroke="#263238" stroke-width="0.75" stroke-miterlimit="10"/>
<path d="M38.9894 122.55C38.6887 140.487 38.4756 176.54 38.4756 176.54" stroke="#263238" stroke-width="0.75" stroke-miterlimit="10"/>
<path d="M39.0278 120.317C39.2321 108.456 39.4718 96.8474 39.7122 90.6042C40.3302 74.5373 41.2899 75.4383 41.2899 75.4383C41.2899 75.4383 42.4336 71.8307 48.8574 72.2451" stroke="#263238" stroke-width="0.75" stroke-miterlimit="10"/>
<path d="M31.1153 133.863C31.1153 133.863 25.9454 129.253 28.0139 126.985C30.0817 124.719 42.9021 123.056 46.624 126.003C50.3459 128.951 42.0745 133.107 38.973 134.014C35.8709 134.921 32.149 134.619 31.1153 133.863Z" fill="#FBAA06" stroke="#263238" stroke-width="0.75" stroke-miterlimit="10" stroke-linecap="round" stroke-linejoin="round"/>
<path d="M35.8888 130.088C35.8165 130.555 35.7739 131.019 35.7739 131.465" stroke="#263238" stroke-width="0.75" stroke-miterlimit="10"/>
<path d="M37.6665 124.706C37.6665 124.706 36.8975 126.245 36.3398 128.13" stroke="#263238" stroke-width="0.75" stroke-miterlimit="10"/>
<path d="M31.1153 164.004C31.1153 164.004 25.9454 159.394 28.0139 157.127C30.0817 154.86 42.9021 153.197 46.624 156.144C50.3459 159.092 42.0745 163.248 38.973 164.155C35.8709 165.062 32.149 164.76 31.1153 164.004Z" fill="#FBAA06" stroke="#263238" stroke-width="0.75" stroke-miterlimit="10" stroke-linecap="round" stroke-linejoin="round"/>
<path d="M37.6664 154.847C37.6664 154.847 35.7744 158.632 35.7744 161.605" stroke="#263238" stroke-width="0.75" stroke-miterlimit="10"/>
<path d="M34.9637 151.257C34.9637 151.257 31.4537 148.127 32.858 146.587C34.2622 145.048 42.9664 143.919 45.493 145.92C48.0203 147.921 42.4046 150.743 40.2988 151.359C38.1931 151.975 35.6658 151.77 34.9637 151.257Z" fill="#FBAA06" stroke="#263238" stroke-width="0.75" stroke-miterlimit="10" stroke-linecap="round" stroke-linejoin="round"/>
<path d="M39.4121 145.04C39.4121 145.04 38.1274 147.61 38.1274 149.629" stroke="#263238" stroke-width="0.75" stroke-miterlimit="10"/>
<path d="M44.1021 171.412H30.1084V202.442H44.1021V171.412Z" fill="#263238" stroke="#263238" stroke-width="0.75" stroke-miterlimit="10" stroke-linecap="round" stroke-linejoin="round"/>
<path d="M244.966 172.961H220.25V200.582H244.966V172.961Z" fill="#FBAA06" stroke="#263238" stroke-miterlimit="10" stroke-linecap="round" stroke-linejoin="round"/>
<path d="M220.249 172.961H195.533V200.582H220.249V172.961Z" fill="#FBAA06" stroke="#263238" stroke-miterlimit="10" stroke-linecap="round" stroke-linejoin="round"/>
<path d="M195.533 172.961H170.816V200.582H195.533V172.961Z" fill="#FBAA06" stroke="#263238" stroke-miterlimit="10" stroke-linecap="round" stroke-linejoin="round"/>
<path d="M170.816 172.961H146.1V200.582H170.816V172.961Z" fill="#FBAA06" stroke="#263238" stroke-miterlimit="10" stroke-linecap="round" stroke-linejoin="round"/>
<path d="M146.1 172.961H121.384V200.582H146.1V172.961Z" fill="#FBAA06" stroke="#263238" stroke-miterlimit="10" stroke-linecap="round" stroke-linejoin="round"/>
<path d="M121.384 172.961H96.667V200.582H121.384V172.961Z" fill="#FBAA06" stroke="#263238" stroke-miterlimit="10" stroke-linecap="round" stroke-linejoin="round"/>
<path d="M244.966 145.321H220.25V172.942H244.966V145.321Z" fill="#FBAA06" stroke="#263238" stroke-miterlimit="10" stroke-linecap="round" stroke-linejoin="round"/>
<path d="M220.249 145.321H195.533V172.942H220.249V145.321Z" fill="#FBAA06" stroke="#263238" stroke-miterlimit="10" stroke-linecap="round" stroke-linejoin="round"/>
<path d="M195.533 145.321H170.816V172.942H195.533V145.321Z" fill="#FBAA06" stroke="#263238" stroke-miterlimit="10" stroke-linecap="round" stroke-linejoin="round"/>
<path d="M170.816 145.321H146.1V172.942H170.816V145.321Z" fill="#FBAA06" stroke="#263238" stroke-miterlimit="10" stroke-linecap="round" stroke-linejoin="round"/>
<path d="M146.1 145.321H121.384V172.942H146.1V145.321Z" fill="#FBAA06" stroke="#263238" stroke-miterlimit="10" stroke-linecap="round" stroke-linejoin="round"/>
<path d="M121.384 145.321H96.667V172.942H121.384V145.321Z" fill="#FBAA06" stroke="#263238" stroke-miterlimit="10" stroke-linecap="round" stroke-linejoin="round"/>
<path d="M244.966 117.682H220.25V145.303H244.966V117.682Z" fill="#FBAA06" stroke="#263238" stroke-miterlimit="10" stroke-linecap="round" stroke-linejoin="round"/>
<path d="M220.249 117.682H195.533V145.303H220.249V117.682Z" fill="#FBAA06" stroke="#263238" stroke-miterlimit="10" stroke-linecap="round" stroke-linejoin="round"/>
<path d="M195.533 117.682H170.816V145.303H195.533V117.682Z" fill="#FBAA06" stroke="#263238" stroke-miterlimit="10" stroke-linecap="round" stroke-linejoin="round"/>
<path d="M170.816 117.682H146.1V145.303H170.816V117.682Z" fill="#FBAA06" stroke="#263238" stroke-miterlimit="10" stroke-linecap="round" stroke-linejoin="round"/>
<path d="M146.1 117.682H121.384V145.303H146.1V117.682Z" fill="#FBAA06" stroke="#263238" stroke-miterlimit="10" stroke-linecap="round" stroke-linejoin="round"/>
<path d="M121.384 117.682H96.667V145.303H121.384V117.682Z" fill="#FBAA06" stroke="#263238" stroke-miterlimit="10" stroke-linecap="round" stroke-linejoin="round"/>
<path d="M244.966 90.042H220.25V117.664H244.966V90.042Z" fill="#FBAA06" stroke="#263238" stroke-miterlimit="10" stroke-linecap="round" stroke-linejoin="round"/>
<path d="M220.25 90.042H195.533V117.664H220.25V90.042Z" fill="#FBAA06" stroke="#263238" stroke-miterlimit="10" stroke-linecap="round" stroke-linejoin="round"/>
<path d="M195.533 90.042H170.816V117.664H195.533V90.042Z" fill="#FBAA06" stroke="#263238" stroke-miterlimit="10" stroke-linecap="round" stroke-linejoin="round"/>
<path d="M244.966 62.4023H220.25V90.0239H244.966V62.4023Z" fill="#FBAA06" stroke="#263238" stroke-miterlimit="10" stroke-linecap="round" stroke-linejoin="round"/>
<path d="M220.25 62.4023H195.533V90.0239H220.25V62.4023Z" fill="#FBAA06" stroke="#263238" stroke-miterlimit="10" stroke-linecap="round" stroke-linejoin="round"/>
<path d="M195.533 62.4023H170.816V90.0239H195.533V62.4023Z" fill="#FBAA06" stroke="#263238" stroke-miterlimit="10" stroke-linecap="round" stroke-linejoin="round"/>
<path d="M207.425 91.6369C207.097 91.6369 206.833 91.3717 206.833 91.0449V88.4514C206.833 88.1246 207.097 87.8594 207.425 87.8594C207.752 87.8594 208.017 88.1246 208.017 88.4514V91.0449C208.017 91.3723 207.752 91.6369 207.425 91.6369Z" fill="#FCFCFC"/>
<path d="M232.992 91.6369C232.665 91.6369 232.4 91.3717 232.4 91.0449V88.4514C232.4 88.1246 232.665 87.8594 232.992 87.8594C233.32 87.8594 233.584 88.1246 233.584 88.4514V91.0449C233.584 91.3723 233.32 91.6369 232.992 91.6369Z" fill="#FCFCFC"/>
<path d="M182.803 91.6369C182.476 91.6369 182.211 91.3717 182.211 91.0449V88.4514C182.211 88.1246 182.476 87.8594 182.803 87.8594C183.131 87.8594 183.395 88.1246 183.395 88.4514V91.0449C183.395 91.3723 183.131 91.6369 182.803 91.6369Z" fill="#FCFCFC"/>
<path d="M207.425 119.454C207.097 119.454 206.833 119.189 206.833 118.862V116.269C206.833 115.942 207.097 115.677 207.425 115.677C207.752 115.677 208.017 115.942 208.017 116.269V118.862C208.017 119.189 207.752 119.454 207.425 119.454Z" fill="#FCFCFC"/>
<path d="M232.992 119.454C232.665 119.454 232.4 119.189 232.4 118.862V116.269C232.4 115.942 232.665 115.677 232.992 115.677C233.32 115.677 233.584 115.942 233.584 116.269V118.862C233.584 119.189 233.32 119.454 232.992 119.454Z" fill="#FCFCFC"/>
<path d="M182.803 119.454C182.476 119.454 182.211 119.189 182.211 118.862V116.269C182.211 115.942 182.476 115.677 182.803 115.677C183.131 115.677 183.395 115.942 183.395 116.269V118.862C183.395 119.189 183.131 119.454 182.803 119.454Z" fill="#FCFCFC"/>
<path d="M207.425 147.034C207.097 147.034 206.833 146.769 206.833 146.442V143.849C206.833 143.522 207.097 143.257 207.425 143.257C207.752 143.257 208.017 143.522 208.017 143.849V146.442C208.017 146.77 207.752 147.034 207.425 147.034Z" fill="#FCFCFC"/>
<path d="M232.992 147.034C232.665 147.034 232.4 146.769 232.4 146.442V143.849C232.4 143.522 232.665 143.257 232.992 143.257C233.32 143.257 233.584 143.522 233.584 143.849V146.442C233.584 146.77 233.32 147.034 232.992 147.034Z" fill="#FCFCFC"/>
<path d="M182.803 147.034C182.476 147.034 182.211 146.769 182.211 146.442V143.849C182.211 143.522 182.476 143.257 182.803 143.257C183.131 143.257 183.395 143.522 183.395 143.849V146.442C183.395 146.77 183.131 147.034 182.803 147.034Z" fill="#FCFCFC"/>
<path d="M158.147 147.034C157.82 147.034 157.555 146.769 157.555 146.442V143.849C157.555 143.522 157.82 143.257 158.147 143.257C158.475 143.257 158.739 143.522 158.739 143.849V146.442C158.739 146.77 158.475 147.034 158.147 147.034Z" fill="#FCFCFC"/>
<path d="M133.053 147.034C132.726 147.034 132.461 146.769 132.461 146.442V143.849C132.461 143.522 132.726 143.257 133.053 143.257C133.38 143.257 133.645 143.522 133.645 143.849V146.442C133.645 146.77 133.38 147.034 133.053 147.034Z" fill="#FCFCFC"/>
<path d="M108.077 147.034C107.749 147.034 107.485 146.769 107.485 146.442V143.849C107.485 143.522 107.749 143.257 108.077 143.257C108.404 143.257 108.669 143.522 108.669 143.849V146.442C108.669 146.77 108.404 147.034 108.077 147.034Z" fill="#FCFCFC"/>
<path d="M207.425 174.666C207.097 174.666 206.833 174.401 206.833 174.074V171.481C206.833 171.154 207.097 170.889 207.425 170.889C207.752 170.889 208.017 171.154 208.017 171.481V174.074C208.017 174.401 207.752 174.666 207.425 174.666Z" fill="#FCFCFC"/>
<path d="M232.992 174.666C232.665 174.666 232.4 174.401 232.4 174.074V171.481C232.4 171.154 232.665 170.889 232.992 170.889C233.32 170.889 233.584 171.154 233.584 171.481V174.074C233.584 174.401 233.32 174.666 232.992 174.666Z" fill="#FCFCFC"/>
<path d="M182.803 174.666C182.476 174.666 182.211 174.401 182.211 174.074V171.481C182.211 171.154 182.476 170.889 182.803 170.889C183.131 170.889 183.395 171.154 183.395 171.481V174.074C183.395 174.401 183.131 174.666 182.803 174.666Z" fill="#FCFCFC"/>
<path d="M158.147 174.666C157.82 174.666 157.555 174.401 157.555 174.074V171.481C157.555 171.154 157.82 170.889 158.147 170.889C158.475 170.889 158.739 171.154 158.739 171.481V174.074C158.739 174.401 158.475 174.666 158.147 174.666Z" fill="#FCFCFC"/>
<path d="M133.053 174.666C132.726 174.666 132.461 174.401 132.461 174.074V171.481C132.461 171.154 132.726 170.889 133.053 170.889C133.38 170.889 133.645 171.154 133.645 171.481V174.074C133.645 174.401 133.38 174.666 133.053 174.666Z" fill="#FCFCFC"/>
<path d="M108.077 174.666C107.749 174.666 107.485 174.401 107.485 174.074V171.481C107.485 171.154 107.749 170.889 108.077 170.889C108.404 170.889 108.669 171.154 108.669 171.481V174.074C108.669 174.401 108.404 174.666 108.077 174.666Z" fill="#FCFCFC"/>
<path d="M193.461 104.454C193.461 104.127 193.727 103.862 194.053 103.862H196.647C196.974 103.862 197.239 104.127 197.239 104.454C197.239 104.782 196.974 105.046 196.647 105.046H194.053C193.727 105.046 193.461 104.782 193.461 104.454Z" fill="#FCFCFC"/>
<path d="M193.461 133.593C193.461 133.266 193.727 133.001 194.053 133.001H196.647C196.974 133.001 197.239 133.266 197.239 133.593C197.239 133.92 196.974 134.185 196.647 134.185H194.053C193.727 134.185 193.461 133.92 193.461 133.593Z" fill="#FCFCFC"/>
<path d="M193.461 78.6311C193.461 78.3037 193.727 78.0391 194.053 78.0391H196.647C196.974 78.0391 197.239 78.3037 197.239 78.6311C197.239 78.9584 196.974 79.2231 196.647 79.2231H194.053C193.727 79.2231 193.461 78.9584 193.461 78.6311Z" fill="#FCFCFC"/>
<path d="M193.461 187.874C193.461 187.547 193.727 187.282 194.053 187.282H196.647C196.974 187.282 197.239 187.547 197.239 187.874C197.239 188.202 196.974 188.466 196.647 188.466H194.053C193.727 188.466 193.461 188.202 193.461 187.874Z" fill="#FCFCFC"/>
<path d="M193.461 158.921C193.461 158.593 193.727 158.329 194.053 158.329H196.647C196.974 158.329 197.239 158.593 197.239 158.921C197.239 159.248 196.974 159.513 196.647 159.513H194.053C193.727 159.513 193.461 159.248 193.461 158.921Z" fill="#FCFCFC"/>
<path d="M218.167 104.454C218.167 104.127 218.433 103.862 218.759 103.862H221.353C221.68 103.862 221.945 104.127 221.945 104.454C221.945 104.782 221.68 105.046 221.353 105.046H218.759C218.433 105.046 218.167 104.782 218.167 104.454Z" fill="#FCFCFC"/>
<path d="M218.167 133.593C218.167 133.266 218.433 133.001 218.759 133.001H221.353C221.68 133.001 221.945 133.266 221.945 133.593C221.945 133.92 221.68 134.185 221.353 134.185H218.759C218.433 134.185 218.167 133.92 218.167 133.593Z" fill="#FCFCFC"/>
<path d="M218.167 78.6311C218.167 78.3037 218.433 78.0391 218.759 78.0391H221.353C221.68 78.0391 221.945 78.3037 221.945 78.6311C221.945 78.9584 221.68 79.2231 221.353 79.2231H218.759C218.433 79.2231 218.167 78.9584 218.167 78.6311Z" fill="#FCFCFC"/>
<path d="M218.167 187.874C218.167 187.547 218.433 187.282 218.759 187.282H221.353C221.68 187.282 221.945 187.547 221.945 187.874C221.945 188.202 221.68 188.466 221.353 188.466H218.759C218.433 188.466 218.167 188.202 218.167 187.874Z" fill="#FCFCFC"/>
<path d="M218.167 158.921C218.167 158.593 218.433 158.329 218.759 158.329H221.353C221.68 158.329 221.945 158.593 221.945 158.921C221.945 159.248 221.68 159.513 221.353 159.513H218.759C218.433 159.513 218.167 159.248 218.167 158.921Z" fill="#FCFCFC"/>
<path d="M169.041 133.593C169.041 133.266 169.306 133.001 169.633 133.001H172.227C172.553 133.001 172.819 133.266 172.819 133.593C172.819 133.92 172.553 134.185 172.227 134.185H169.633C169.306 134.185 169.041 133.92 169.041 133.593Z" fill="#FCFCFC"/>
<path d="M169.041 187.874C169.041 187.547 169.306 187.282 169.633 187.282H172.227C172.553 187.282 172.819 187.547 172.819 187.874C172.819 188.202 172.553 188.466 172.227 188.466H169.633C169.306 188.466 169.041 188.202 169.041 187.874Z" fill="#FCFCFC"/>
<path d="M169.041 158.921C169.041 158.593 169.306 158.329 169.633 158.329H172.227C172.553 158.329 172.819 158.593 172.819 158.921C172.819 159.248 172.553 159.513 172.227 159.513H169.633C169.306 159.513 169.041 159.248 169.041 158.921Z" fill="#FCFCFC"/>
<path d="M143.804 133.593C143.804 133.266 144.069 133.001 144.396 133.001H146.99C147.317 133.001 147.582 133.266 147.582 133.593C147.582 133.92 147.317 134.185 146.99 134.185H144.396C144.069 134.185 143.804 133.92 143.804 133.593Z" fill="#FCFCFC"/>
<path d="M143.804 187.874C143.804 187.547 144.069 187.282 144.396 187.282H146.99C147.317 187.282 147.582 187.547 147.582 187.874C147.582 188.202 147.317 188.466 146.99 188.466H144.396C144.069 188.466 143.804 188.202 143.804 187.874Z" fill="#FCFCFC"/>
<path d="M143.804 158.921C143.804 158.593 144.069 158.329 144.396 158.329H146.99C147.317 158.329 147.582 158.593 147.582 158.921C147.582 159.248 147.317 159.513 146.99 159.513H144.396C144.069 159.513 143.804 159.248 143.804 158.921Z" fill="#FCFCFC"/>
<path d="M119.53 133.593C119.53 133.266 119.795 133.001 120.122 133.001H122.715C123.042 133.001 123.307 133.266 123.307 133.593C123.307 133.92 123.042 134.185 122.715 134.185H120.122C119.795 134.185 119.53 133.92 119.53 133.593Z" fill="#FCFCFC"/>
<path d="M119.53 187.874C119.53 187.547 119.795 187.282 120.122 187.282H122.715C123.042 187.282 123.307 187.547 123.307 187.874C123.307 188.202 123.042 188.466 122.715 188.466H120.122C119.795 188.466 119.53 188.202 119.53 187.874Z" fill="#FCFCFC"/>
<path d="M119.53 158.921C119.53 158.593 119.795 158.329 120.122 158.329H122.715C123.042 158.329 123.307 158.593 123.307 158.921C123.307 159.248 123.042 159.513 122.715 159.513H120.122C119.795 159.513 119.53 159.248 119.53 158.921Z" fill="#FCFCFC"/>
<path d="M244.892 200.631H96.4093L76.5571 242.015H263.444L244.892 200.631Z" fill="#B2B2B2" stroke="#263238" stroke-miterlimit="10" stroke-linecap="round" stroke-linejoin="round"/>
<path d="M201.02 241.986H169.909L169.919 220.385H197.775L201.02 241.986Z" fill="#FBAA06" stroke="#263238" stroke-miterlimit="10" stroke-linecap="round" stroke-linejoin="round"/>
<path d="M232.232 241.986H201.121L197.865 220.385H225.722L232.232 241.986Z" fill="#FBAA06" stroke="#263238" stroke-miterlimit="10" stroke-linecap="round" stroke-linejoin="round"/>
<path d="M263.444 241.986H232.332L225.812 220.385H253.668L263.444 241.986Z" fill="#FBAA06" stroke="#263238" stroke-miterlimit="10" stroke-linecap="round" stroke-linejoin="round"/>
<path d="M205.128 269.341H169.895L169.909 242.015H201.024L205.128 269.341Z" fill="#FBAA06" stroke="#263238" stroke-miterlimit="10" stroke-linecap="round" stroke-linejoin="round"/>
<path d="M169.894 269.341H134.66L138.791 242.015H169.907L169.894 269.341Z" fill="#FBAA06" stroke="#263238" stroke-miterlimit="10" stroke-linecap="round" stroke-linejoin="round"/>
<path d="M134.659 269.341H99.4258L107.675 242.015H138.79L134.659 269.341Z" fill="#FBAA06" stroke="#263238" stroke-miterlimit="10" stroke-linecap="round" stroke-linejoin="round"/>
<path d="M99.4244 269.341H64.1909L76.5572 242.015H107.673L99.4244 269.341Z" fill="#FBAA06" stroke="#263238" stroke-miterlimit="10" stroke-linecap="round" stroke-linejoin="round"/>
<path d="M240.475 269.341H205.242L201.125 242.015H232.24L240.475 269.341Z" fill="#FBAA06" stroke="#263238" stroke-miterlimit="10" stroke-linecap="round" stroke-linejoin="round"/>
<path d="M275.823 269.341H240.59L232.341 242.015H263.457L275.823 269.341Z" fill="#FBAA06" stroke="#263238" stroke-miterlimit="10" stroke-linecap="round" stroke-linejoin="round"/>
<path d="M94.3778 287.607L93.7319 289.895" stroke="#263238" stroke-miterlimit="10" stroke-linecap="round" stroke-linejoin="round"/>
<path d="M98.9444 271.416L95.1899 284.727" stroke="#263238" stroke-miterlimit="10" stroke-linecap="round" stroke-linejoin="round"/>
<path d="M134.245 271.179L132.823 281.603" stroke="#263238" stroke-miterlimit="10" stroke-linecap="round" stroke-linejoin="round"/>
<path d="M169.545 270.942V277.575" stroke="#263238" stroke-miterlimit="10" stroke-linecap="round" stroke-linejoin="round"/>
<path d="M205.319 271.416L207.214 282.077" stroke="#263238" stroke-miterlimit="10" stroke-linecap="round" stroke-linejoin="round"/>
<path d="M242.58 277.16L244.41 283.261" stroke="#263238" stroke-miterlimit="10" stroke-linecap="round" stroke-linejoin="round"/>
<path d="M240.857 271.416L241.941 275.032" stroke="#263238" stroke-miterlimit="10" stroke-linecap="round" stroke-linejoin="round"/>
<path d="M279.884 278.317L281.606 281.84" stroke="#263238" stroke-miterlimit="10" stroke-linecap="round" stroke-linejoin="round"/>
<path d="M276.394 271.179L279.056 276.625" stroke="#263238" stroke-miterlimit="10" stroke-linecap="round" stroke-linejoin="round"/>
<path d="M271.09 220.242H275.683" stroke="#263238" stroke-miterlimit="10" stroke-linecap="round" stroke-linejoin="round"/>
<path d="M255.545 220.242H267.926" stroke="#263238" stroke-miterlimit="10" stroke-linecap="round" stroke-linejoin="round"/>
<path d="M265.021 242.038H276.867" stroke="#263238" stroke-miterlimit="10" stroke-linecap="round" stroke-linejoin="round"/>
<path d="M61.0985 242.038H58.6689" stroke="#263238" stroke-miterlimit="10" stroke-linecap="round" stroke-linejoin="round"/>
<path d="M74.3053 242.038H63.0312" stroke="#263238" stroke-miterlimit="10" stroke-linecap="round" stroke-linejoin="round"/>
<path d="M61.7484 269.046H35.9248" stroke="#263238" stroke-miterlimit="10" stroke-linecap="round" stroke-linejoin="round"/>
<path d="M56.0786 285.019L53.4561 290.132" stroke="#263238" stroke-miterlimit="10" stroke-linecap="round" stroke-linejoin="round"/>
<path d="M62.9331 271.652L57.2979 282.642" stroke="#263238" stroke-miterlimit="10" stroke-linecap="round" stroke-linejoin="round"/>
<path d="M244.901 210.388L243.006 201.366L240.442 179.05L244.053 186.895L244.901 210.388Z" fill="#E0E0E0" stroke="#263238" stroke-miterlimit="10" stroke-linecap="round" stroke-linejoin="round"/>
<path d="M275.709 210.388H244.902L242.183 185.208L278.427 185.8L275.709 210.388Z" fill="#E0E0E0" stroke="#263238" stroke-miterlimit="10" stroke-linecap="round" stroke-linejoin="round"/>
<path d="M238.954 178.144C238.954 178.144 240.751 184.187 240.408 185.731C240.065 187.276 242.296 187.104 242.554 187.104C242.811 187.104 279.711 187.181 279.711 187.181C279.711 187.181 280.998 187.095 280.569 186.237C280.14 185.379 274.824 178.487 274.481 178.144C274.137 177.8 273.022 177.8 273.022 177.8L241.013 177.714C241.013 177.714 238.868 177.2 238.954 178.144Z" fill="#FCFCFC" stroke="#263238" stroke-miterlimit="10" stroke-linecap="round" stroke-linejoin="round"/>
<path d="M242.183 185.208L240.442 179.05H273.864L278.426 185.8L242.183 185.208Z" fill="#263238" stroke="#263238" stroke-miterlimit="10" stroke-linecap="round" stroke-linejoin="round"/>
<path d="M281.752 180.034C281.455 179.9 281.104 180.037 280.972 180.335L279.664 183.29C279.408 183.87 278.761 184.16 278.158 183.961L275.294 183.021C274.41 182.731 273.447 183.08 272.955 183.872L272 185.411C271.963 185.472 271.942 185.537 271.928 185.603L273.238 185.662L273.961 184.497C274.164 184.17 274.557 184.025 274.925 184.146L277.79 185.086C278.975 185.476 280.245 184.908 280.747 183.768L282.054 180.814C282.187 180.515 282.051 180.165 281.752 180.034Z" fill="#263238"/>
<path d="M284.827 177.116C283.56 180.197 281.765 182.38 280.817 181.99C279.869 181.601 280.126 178.786 281.393 175.704C282.659 172.622 284.454 170.44 285.402 170.83C286.351 171.219 286.093 174.034 284.827 177.116Z" fill="#263238" stroke="#263238" stroke-miterlimit="10" stroke-linecap="round" stroke-linejoin="round"/>
<path d="M91.8119 199.814L87.8301 207.902C87.8301 207.902 96.6651 218.48 97.4116 218.728C98.1581 218.977 108.362 219.599 109.233 220.968C110.104 222.337 110.104 222.337 110.104 222.337C110.104 222.337 110.478 224.577 109.98 225.448C109.482 226.319 99.2782 228.31 98.4067 228.31C97.5359 228.31 75.6343 208.027 75.6343 208.027L80.1139 196.454L91.8119 199.814Z" fill="#263238" stroke="#263238" stroke-miterlimit="10" stroke-linecap="round" stroke-linejoin="round"/>
<path d="M101.021 194.961C101.021 194.961 94.55 200.436 93.6786 201.182C92.8078 201.929 76.7551 197.574 76.5059 196.081C76.2566 194.588 77.2524 187.992 77.2524 187.992C77.2524 187.992 94.0516 175.424 94.7981 175.673C95.5452 175.922 101.021 194.961 101.021 194.961Z" fill="#263238" stroke="#263238" stroke-miterlimit="10" stroke-linecap="round" stroke-linejoin="round"/>
<path d="M139.03 192.654L147.921 200.96L152.834 202.715C152.834 202.715 155.291 210.903 155.641 211.839C155.992 212.775 155.992 215.349 155.992 215.349L145.932 216.986L143.592 208.68C143.592 208.68 142.189 208.213 140.551 206.107C138.913 204.001 138.211 203.182 138.211 203.182L131.543 197.333L139.03 192.654Z" fill="#FCFCFC" stroke="#263238" stroke-miterlimit="10" stroke-linecap="round" stroke-linejoin="round"/>
<path d="M142.653 204.507C142.653 204.507 144.078 207.753 144.712 208.308C145.345 208.862 147.8 209.654 147.8 209.654C147.8 209.654 149.463 214.564 150.017 215.039C150.571 215.514 152.156 215.198 152.234 214.564C152.314 213.931 150.729 209.1 150.651 208.625C150.571 208.15 150.888 204.745 150.888 204.745" fill="#FCFCFC"/>
<path d="M142.653 204.507C142.653 204.507 144.078 207.753 144.712 208.308C145.345 208.862 147.8 209.654 147.8 209.654C147.8 209.654 149.463 214.564 150.017 215.039C150.571 215.514 152.156 215.198 152.234 214.564C152.314 213.931 150.729 209.1 150.651 208.625C150.571 208.15 150.888 204.745 150.888 204.745" stroke="#263238" stroke-miterlimit="10" stroke-linecap="round" stroke-linejoin="round"/>
<path d="M151.839 208.229C151.839 208.229 152.948 212.426 153.344 214.88" stroke="#263238" stroke-miterlimit="10" stroke-linecap="round" stroke-linejoin="round"/>
<path d="M147.087 211L148.513 215.751" stroke="#263238" stroke-miterlimit="10" stroke-linecap="round" stroke-linejoin="round"/>
<path d="M108.85 151.244L123.823 172.534L139.031 192.655L131.661 198.27L121.601 190.666L110.956 182.243L101.948 156.391L108.85 151.244Z" fill="#E0E0E0" stroke="#263238" stroke-miterlimit="10" stroke-linecap="round" stroke-linejoin="round"/>
<path d="M136.106 190.198L128.386 194.994" stroke="#263238" stroke-miterlimit="10" stroke-linecap="round" stroke-linejoin="round"/>
<path d="M105.125 132.103C105.125 132.103 82.8942 129.779 71.9967 134.574C61.0991 139.369 35.3809 169.591 34.7995 170.899C34.2182 172.207 27.0988 186.01 29.5686 193.275C32.0384 200.54 34.9446 203.156 34.9446 203.156C34.9446 203.156 25.9361 201.412 22.4486 200.395C18.9618 199.378 16.6364 204.028 16.3457 207.37C16.055 210.712 17.6534 211.148 17.9441 213.182C18.2348 215.216 17.9441 230.909 20.7046 233.088C23.4651 235.268 35.5253 237.011 36.6874 234.541C37.8501 232.07 37.2688 229.019 35.2347 227.566C33.2005 226.114 32.7648 223.208 32.7648 223.208L36.5424 218.558C36.5424 218.558 39.8842 218.558 42.209 219.721C44.5338 220.883 46.4229 221.464 46.4229 221.464C46.4229 221.464 47.8756 224.08 48.3119 224.37C48.7477 224.661 52.6708 224.516 52.6708 224.516C52.6708 224.516 75.628 235.268 78.5341 235.558C81.4403 235.849 92.6285 238.755 96.1153 237.302C99.6028 235.849 101.637 233.379 102.218 228.148C102.8 222.917 91.4658 210.13 89.7223 207.805C87.9789 205.481 81.5853 198.361 81.5853 198.361C81.5853 198.361 82.893 196.327 82.4573 194.873C82.0216 193.42 81.0045 192.403 81.0045 192.403L79.5518 188.77L101.202 174.095C101.202 174.095 108.612 167.556 109.63 163.633C110.647 159.71 113.117 154.769 113.117 154.769L105.125 132.103Z" fill="#FCFCFC" stroke="#263238" stroke-miterlimit="10" stroke-linecap="round" stroke-linejoin="round"/>
<path d="M79.5516 188.77L60.1251 184.89C60.1251 184.89 55.8639 189.337 57.3457 189.707C58.828 190.078 79.9494 194.154 79.9494 194.154" fill="#FCFCFC"/>
<path d="M79.5516 188.77L60.1251 184.89C60.1251 184.89 55.8639 189.337 57.3457 189.707C58.828 190.078 79.9494 194.154 79.9494 194.154" stroke="#263238" stroke-miterlimit="10" stroke-linecap="round" stroke-linejoin="round"/>
<path d="M78.4892 132.677C78.3868 134.052 78.4531 135.83 79.0208 137.791C80.3078 142.236 82.764 151.477 82.764 151.477C82.764 151.477 91.1864 147.266 94.813 147.266C98.4396 147.266 109.084 156.507 109.084 156.507L108.324 141.176L105.126 132.103C105.126 132.103 89.9142 130.513 78.4892 132.677Z" fill="#FBAA06" stroke="#263238" stroke-miterlimit="10" stroke-linecap="round" stroke-linejoin="round"/>
<path d="M140.414 149.07C140.414 149.07 138.491 151.113 137.649 151.714C136.808 152.315 134.284 151.474 133.202 152.917C132.12 154.359 132.841 155.922 132 156.522C131.159 157.123 128.394 155.801 128.394 155.801C128.394 155.801 121.542 156.643 120.1 156.883C118.657 157.123 116.374 156.162 115.532 153.878C114.691 151.594 114.691 151.594 114.691 151.594L112.527 152.676L110.003 133.082L114.691 130.678C114.691 130.678 121.903 125.029 122.985 123.826C124.066 122.624 128.033 120.341 135.246 125.029C142.458 129.717 144.501 144.141 140.414 149.07Z" fill="#FCFCFC" stroke="#263238" stroke-miterlimit="10" stroke-linecap="round" stroke-linejoin="round"/>
<path d="M131.707 151.999C131.031 152.263 130.371 152.19 130.232 151.834C130.094 151.479 130.529 150.977 131.205 150.713C131.882 150.449 132.542 150.523 132.681 150.878C132.82 151.233 132.384 151.735 131.707 151.999Z" fill="#263238"/>
<path d="M133.067 149.253C133.067 149.253 134.842 149.122 135.367 151.094" stroke="#263238" stroke-miterlimit="10" stroke-linecap="round" stroke-linejoin="round"/>
<path d="M123.602 153.394C123.602 153.394 123.339 154.84 124.325 155.628" stroke="#263238" stroke-miterlimit="10" stroke-linecap="round" stroke-linejoin="round"/>
<path d="M127.743 142.615C127.743 142.615 128.926 144.915 129.123 144.981C129.32 145.047 130.438 144.324 131.029 144.324C131.62 144.324 132.738 145.704 133.79 145.77C134.841 145.836 137.207 144.916 137.207 144.916L123.865 122.897C123.865 122.897 120.578 125.987 119.856 126.644C119.133 127.301 114.69 130.679 114.69 130.679C114.69 130.679 114.992 133.15 115.715 134.925C116.438 136.7 118.541 138.671 118.541 138.671C118.541 138.671 121.499 136.437 125.049 136.765C128.598 137.094 128.532 139.986 128.401 141.038C128.269 142.089 127.743 142.615 127.743 142.615Z" fill="#263238" stroke="#263238" stroke-miterlimit="10" stroke-linecap="round" stroke-linejoin="round"/>
<path d="M127.151 143.995C127.151 143.995 129.386 141.629 128.532 140.183C127.678 138.737 123.734 139.198 122.157 141.235C120.579 143.273 121.368 146.23 122.485 146.099C123.602 145.967 123.602 145.967 123.602 145.967" fill="#FCFCFC"/>
<path d="M127.151 143.995C127.151 143.995 129.386 141.629 128.532 140.183C127.678 138.737 123.734 139.198 122.157 141.235C120.579 143.273 121.368 146.23 122.485 146.099C123.602 145.967 123.602 145.967 123.602 145.967" stroke="#263238" stroke-miterlimit="10" stroke-linecap="round" stroke-linejoin="round"/>
<path d="M123.763 121.782L119.646 124.641C119.646 124.641 120.446 130.244 121.476 132.074C122.505 133.904 123.649 135.391 124.678 135.963C125.707 136.534 128.109 136.42 129.252 137.678C130.396 138.936 131.883 142.023 132.683 142.481C133.483 142.938 135.542 143.281 135.542 143.281L125.136 121.21L123.763 121.782Z" fill="#FCFCFC" stroke="#263238" stroke-miterlimit="10" stroke-linecap="round" stroke-linejoin="round"/>
<path d="M121.933 117.666C121.933 117.666 124.449 128.873 126.964 132.075C129.48 135.277 130.509 135.734 131.081 136.763C131.653 137.793 134.512 144.997 138.172 149.343C141.831 153.688 144.004 154.946 144.69 153.803C145.376 152.66 144.804 147.398 144.804 147.398C144.804 147.398 150.98 142.596 152.009 138.936C153.039 135.276 153.725 133.447 153.725 133.447C153.725 133.447 154.639 131.731 154.411 129.788C154.182 127.843 152.924 124.87 152.924 124.87C152.924 124.87 150.752 119.953 146.177 116.523C141.603 113.092 137.829 113.321 137.829 113.321C137.829 113.321 131.54 113.206 128.796 114.464C126.051 115.722 125.022 116.408 124.45 116.18C123.877 115.95 121.361 113.892 121.933 117.666Z" fill="#B2B2B2" stroke="#263238" stroke-miterlimit="10" stroke-linecap="round" stroke-linejoin="round"/>
<path d="M139.276 117.404C139.276 117.404 149.889 119.683 153.308 130.582" stroke="#263238" stroke-miterlimit="10" stroke-linecap="round" stroke-linejoin="round"/>
<path d="M128.199 123.061C128.199 123.061 128.883 124.331 128.883 125.21C128.883 126.089 127.71 126.968 127.71 126.968C127.71 126.968 129.957 131.95 130.641 132.927" stroke="#263238" stroke-miterlimit="10" stroke-linecap="round" stroke-linejoin="round"/>
<path d="M134.157 134.196L136.013 137.81L134.06 139.179" stroke="#263238" stroke-miterlimit="10" stroke-linecap="round" stroke-linejoin="round"/>
<path d="M145 146.309L142.851 144.746L140.898 146.505C140.898 146.505 139.139 145.332 138.065 143.77" stroke="#263238" stroke-miterlimit="10" stroke-linecap="round" stroke-linejoin="round"/>
<path d="M110.356 131.087L113.117 154.77L107.595 158.548L104.979 130.65L110.356 131.087Z" fill="#FCFCFC" stroke="#263238" stroke-miterlimit="10" stroke-linecap="round" stroke-linejoin="round"/>
<path d="M167.941 237.407L138.854 241.804L142.051 217.524L167.941 209.902V237.407Z" fill="#FBAA06" stroke="#263238" stroke-miterlimit="10" stroke-linecap="round" stroke-linejoin="round"/>
<path d="M135.347 218.557L142.321 224.66L152.057 228.292L158.16 236.719C158.16 236.719 157.617 239.129 157.181 239.419C156.745 239.71 154.672 241.369 154.091 241.659C153.51 241.95 152.493 243.119 150.894 243.258C150.291 243.311 148.011 240.271 148.011 240.271C148.011 240.271 147.999 243.034 146.837 243.034C145.674 243.034 145.04 242.608 145.04 241.445C145.04 240.282 143.629 239.19 143.629 239.19C143.629 239.19 138.98 234.976 138.398 234.54C137.817 234.104 134.766 230.036 134.766 230.036L127.21 223.788L135.347 218.557Z" fill="#FCFCFC" stroke="#263238" stroke-miterlimit="10" stroke-linecap="round" stroke-linejoin="round"/>
<path d="M153.728 233.558L154.049 235.003L157.181 239.419" stroke="#263238" stroke-miterlimit="10" stroke-linecap="round" stroke-linejoin="round"/>
<path d="M152.282 236.288L151.672 238.06L154.091 241.659" stroke="#263238" stroke-miterlimit="10" stroke-linecap="round" stroke-linejoin="round"/>
<path d="M148.348 238.296L147.786 239.66" stroke="#263238" stroke-miterlimit="10" stroke-linecap="round" stroke-linejoin="round"/>
<path d="M105.997 161.599L113.989 184.847L136.51 218.702L127.356 226.403L121.544 218.267L96.6974 195.744L78.0991 163.198" fill="#FCFCFC"/>
<path d="M105.997 161.599L113.989 184.847L136.51 218.702L127.356 226.403L121.544 218.267L96.6974 195.744L78.0991 163.198" stroke="#263238" stroke-miterlimit="10" stroke-linecap="round" stroke-linejoin="round"/>
<path d="M126.429 217.802L123.764 219.685" stroke="#263238" stroke-miterlimit="10" stroke-linecap="round" stroke-linejoin="round"/>
<path d="M132.468 213.536L127.851 216.798" stroke="#263238" stroke-miterlimit="10" stroke-linecap="round" stroke-linejoin="round"/>
<path d="M40.8449 207.621C38.7753 206.666 34.9451 203.155 34.9451 203.155C34.9451 203.155 25.9366 201.412 22.4491 200.395C18.9617 199.378 16.6369 204.027 16.3462 207.369C16.0555 210.711 17.6539 211.147 17.9446 213.181C18.2353 215.216 17.9446 230.908 20.7051 233.087C23.4656 235.267 35.5258 237.011 36.6879 234.54C37.8506 232.07 37.2693 229.019 35.2351 227.566C33.201 226.113 32.7653 223.207 32.7653 223.207L36.5429 218.557C36.5429 218.557 39.8847 218.557 42.2095 219.72C44.5343 220.883 46.4234 221.464 46.4234 221.464L46.4162 209.69C46.4162 209.69 42.914 208.576 40.8449 207.621Z" fill="#263238" stroke="#263238" stroke-miterlimit="10" stroke-linecap="round" stroke-linejoin="round"/>
<path d="M35.1139 233.727C33.2035 234.682 23.3343 232.295 22.3788 230.703C21.4239 229.111 20.7869 213.351 20.6276 209.053C20.514 205.985 22.0224 202.35 22.8956 200.52C22.7393 200.478 22.5883 200.435 22.4486 200.395C18.9612 199.378 16.6364 204.027 16.3457 207.369C16.055 210.711 17.6534 211.147 17.9441 213.181C18.2348 215.216 17.9441 230.908 20.7046 233.087C23.4651 235.267 35.5253 237.011 36.6874 234.54C36.9781 233.922 37.1598 233.268 37.2368 232.612C36.6051 232.957 35.8604 233.354 35.1139 233.727Z" fill="#FCFCFC" stroke="#263238" stroke-miterlimit="10" stroke-linecap="round" stroke-linejoin="round"/>
<path d="M73.8916 222.84L85.9702 228.621C85.9702 228.621 86.5261 230.606 89.9419 231.957" fill="#FCFCFC"/>
<path d="M73.8916 222.84L85.9702 228.621C85.9702 228.621 86.5261 230.606 89.9419 231.957" stroke="#263238" stroke-miterlimit="10" stroke-linecap="round" stroke-linejoin="round"/>
<path d="M46.4165 209.69L71.0277 221.469" stroke="#263238" stroke-miterlimit="10" stroke-linecap="round" stroke-linejoin="round"/>
<path d="M54.117 213.448C54.117 213.448 52.846 219.247 53.4818 222.265" stroke="#263238" stroke-miterlimit="10" stroke-linecap="round" stroke-linejoin="round"/>
<path d="M54.8315 213.925C54.8315 213.925 54.9902 219.723 55.7847 222.503" stroke="#263238" stroke-miterlimit="10" stroke-linecap="round" stroke-linejoin="round"/>
<path d="M63.4771 182.282C67.4304 183.432 73.1172 185.047 74.5315 185.249C76.7556 185.567 85.4142 183.74 85.4142 183.74" stroke="#263238" stroke-miterlimit="10" stroke-linecap="round" stroke-linejoin="round"/>
<path d="M59.5186 181.119C59.5186 181.119 60.3876 181.378 61.7119 181.766" stroke="#263238" stroke-miterlimit="10" stroke-linecap="round" stroke-linejoin="round"/>
<path d="M74.8679 175.881C69.9004 176.419 64.2255 176.997 60.7896 177.226" stroke="#263238" stroke-miterlimit="10" stroke-linecap="round" stroke-linejoin="round"/>
<path d="M84.7784 174.764C84.7784 174.764 81.4271 175.159 77.0801 175.639" stroke="#263238" stroke-miterlimit="10" stroke-linecap="round" stroke-linejoin="round"/>
<path d="M69.75 163.676C72.8846 164.86 77.8764 166.668 80.3302 167.138" stroke="#263238" stroke-miterlimit="10" stroke-linecap="round" stroke-linejoin="round"/>
<path d="M66.9854 162.61C66.9854 162.61 67.5643 162.84 68.4938 163.197" stroke="#263238" stroke-miterlimit="10" stroke-linecap="round" stroke-linejoin="round"/>
<path d="M70.0068 197.477C75.3408 197.119 82.4702 196.744 81.2039 197.403C79.2184 198.435 77.4702 197.8 75.7232 198.197" stroke="#263238" stroke-miterlimit="10" stroke-linecap="round" stroke-linejoin="round"/>
<path d="M64.5225 197.879C64.5225 197.879 65.8693 197.77 67.801 197.631" stroke="#263238" stroke-miterlimit="10" stroke-linecap="round" stroke-linejoin="round"/>
</svg>
